<svg width="37" height="37" viewBox="0 0 37 37" fill="none" xmlns="http://www.w3.org/2000/svg">
<g clip-path="url(#clip0_1_44)">
<path d="M29.463 18.5C29.463 24.5586 24.5587 29.4629 18.5 29.4629V18.5H29.463ZM18.5 7.53699V18.5H7.53708C7.53708 12.4413 12.4414 7.53699 18.5 7.53699Z" fill="#0A0A0D"/>
<path d="M18.5 7.53704V8.13812C24.213 8.13812 28.8619 12.7859 28.8619 18.5H29.463C29.463 12.4457 24.5543 7.53704 18.5 7.53704ZM18.5 28.8619C12.787 28.8619 8.13812 24.2141 8.13812 18.5H7.53704C7.53704 24.5543 12.4457 29.463 18.5 29.463M18.5 0C8.28302 0 0 8.28301 0 18.5C0 28.717 8.28302 37 18.5 37C28.717 37 37 28.717 37 18.5C37 8.28301 28.717 0 18.5 0ZM35.797 18.5C35.797 28.0524 28.0535 35.797 18.5 35.797C8.94653 35.797 1.20302 28.0524 1.20302 18.5C1.20302 8.94761 8.94761 1.20302 18.5 1.20302C28.0524 1.20302 35.797 8.94761 35.797 18.5Z" fill="#0A0A0D"/>
<path d="M10.5945 9.57545C11.1857 8.95706 11.5204 8.24261 10.9292 7.56053C10.6076 7.19036 10.0675 7.10941 9.61974 7.2918L9.57519 7.30907L9.58931 7.27022C9.6556 7.09431 9.69799 6.53311 9.21657 6.14566C8.98184 5.9568 8.68734 5.88665 8.38958 5.91687C7.83426 5.97299 7.40718 6.34964 6.24439 7.63716C5.89338 8.02568 5.38263 8.63868 5.07617 9.03584L8.27004 12.0447C9.3285 10.8813 9.75993 10.4486 10.5945 9.57545ZM6.42696 8.83942C7.0703 8.05806 7.75385 7.349 8.06356 7.0684C8.16137 6.97991 8.26786 6.89141 8.39718 6.85687C8.60692 6.79968 8.82318 6.94753 8.87208 7.16122C8.92098 7.37598 8.78514 7.57996 8.63409 7.74832C8.29394 8.12929 7.04639 9.42544 7.04639 9.42544L6.42696 8.83942ZM7.67778 10.0179C7.67778 10.0179 8.89273 8.74229 9.28938 8.33434C9.44695 8.17246 9.54802 8.07425 9.65669 8.02136C9.79688 7.95337 9.9501 7.93934 10.087 8.03C10.2218 8.11957 10.2837 8.2739 10.25 8.42715C10.2098 8.60954 10.0599 8.7833 9.93598 8.91604C9.76862 9.09412 8.32763 10.6255 8.32546 10.6277L7.67778 10.0179ZM18.8655 5.98702L19.8881 3.712L19.9533 3.51018L19.9349 3.72063L20.0425 6.76082C20.4011 6.79428 20.7716 6.84392 21.1368 6.90436L20.9705 2.40182C20.4598 2.3457 19.9512 2.30576 19.4426 2.28418L18.4352 4.76749L18.3993 4.95204L18.3635 4.76749L17.3572 2.28418C16.8486 2.30576 16.34 2.3457 15.8292 2.40182L15.663 6.90436C16.0281 6.84392 16.3987 6.79536 16.7573 6.76082L16.8649 3.72063L16.8464 3.51018L16.9116 3.712L17.9342 5.98702H18.8655ZM27.3582 10.6935C27.6093 10.9612 27.9712 11.3929 28.1744 11.6551L31.917 9.29593C31.7301 9.05311 31.4324 8.68401 31.2096 8.42392L28.8394 9.98017L28.6775 10.1183L28.7981 9.94347L29.8447 7.86919L29.1046 7.13424L27.0148 8.17353L26.8388 8.29333L26.979 8.13252L28.5471 5.7798C28.2711 5.54669 28.0059 5.333 27.668 5.07399L25.2924 8.78762C25.5934 9.01749 25.9901 9.35529 26.2433 9.58517L28.4797 8.43255L28.6232 8.32787L28.5178 8.47032L27.3582 10.6935Z" fill="#0A0A0D"/>
</g>
<defs>
<clipPath id="clip0_1_44">
<rect width="37" height="37" fill="white"/>
</clipPath>
</defs>
</svg>
