<svg width="390" height="424" viewBox="0 0 390 424" fill="none" xmlns="http://www.w3.org/2000/svg">
<rect width="390" height="424" fill="#F8F8F8"/>
<g clip-path="url(#clip0_12_601)">
<path d="M213.867 69.3402C214.525 68.4114 215.243 67.7529 216.491 66.7478C217.209 66.1656 217.846 65.8883 218.417 66.2418C218.913 66.5537 219.148 67.136 219.148 67.6905C219.148 68.1064 218.927 68.7233 218.329 69.3125C217.222 70.4076 215.39 71.177 214.089 71.0523C213.196 70.9621 213.31 70.1304 213.867 69.3402ZM204.688 67.1568C204.688 66.1517 206.003 64.502 207.258 64.502C207.66 64.502 207.795 64.6892 207.795 64.9664C207.795 65.7982 205.882 67.0459 205.003 67.4202C204.782 67.5241 204.688 67.434 204.688 67.1568ZM203.688 57.8686C203.661 57.6814 203.762 57.4665 204.003 57.1269C206.452 53.779 211.23 48.9269 213.243 48.9269C213.854 48.9269 214.135 49.2943 214.135 49.835C214.135 50.8539 213.418 52.0669 212.794 52.968C211.123 55.401 206.915 58.132 204.258 58.132C203.842 58.132 203.708 58.028 203.688 57.8686ZM187.657 69.153C187.657 68.7995 187.778 68.55 188.181 68.55C188.657 68.55 189.556 68.855 190.241 69.1946C190.67 69.4442 190.603 69.7214 190.362 70.0125C189.932 70.4284 189.335 70.8582 188.825 70.8582C188.201 70.8582 187.657 69.9779 187.657 69.16V69.153ZM186.013 68.5223C186.013 70.4354 187.282 72.8822 188.926 72.8822C189.972 72.8822 190.999 72.092 191.938 71.2186C192.838 70.3868 192.972 70.2759 193.757 70.4908C195.099 70.8651 196.387 71.0592 197.575 71.0592C199.534 71.0592 201.172 70.6156 202.326 70.1512C202.91 69.9086 203.104 69.8878 203.312 70.165C203.849 70.8859 204.627 71.4127 205.607 71.4127C206.962 71.4127 208.969 70.7819 210.626 69.867C210.787 69.7769 210.908 69.7145 211.015 69.7145C211.136 69.7145 211.183 69.7907 211.183 69.8878C211.183 70.0264 210.962 70.4284 210.962 71.0869C210.962 72.4316 211.901 73 213.257 73C215.156 73 217.081 72.1544 218.705 70.976C220.363 69.7699 221 68.848 221 67.843C221 67.2746 220.805 66.4844 219.853 65.5417C219.282 64.9872 218.732 64.6337 217.84 64.6129C217.256 64.599 216.672 64.8555 216.269 65.0773C215.176 65.7081 214.511 66.2834 213.431 66.9557C212.324 67.635 209.432 69.5481 206.922 69.5343C206.338 69.5481 205.875 69.3055 205.862 68.9312C205.848 68.6678 206.265 68.4391 206.654 68.2034C209.15 66.727 209.814 65.6249 209.814 64.502C209.814 63.3167 208.848 62.8176 207.633 62.8176C206.499 62.8176 204.943 63.3583 203.856 64.5297C203.091 65.3476 202.601 66.4428 202.561 67.739C202.547 68.3559 202.44 68.446 202.171 68.647C201.574 69.0976 199.601 69.5412 198.259 69.5412C196.454 69.5412 194.797 69.3402 194.797 68.5569C194.797 68.1688 195.092 67.6905 195.663 67.0459C197.367 65.1605 198.649 63.6564 200.682 61.2303C201.447 60.3085 201.755 60.1698 202.487 60.0312C203.56 59.8302 204.58 59.7678 206.707 59.1232C208.935 58.43 212.008 56.6833 214.109 53.9454C215.451 52.2056 215.874 50.4935 215.874 49.3359C215.867 47.7902 215.075 47 213.646 47C210.586 47 205.835 51.9491 202.239 56.4823C201.339 57.6052 200.923 58.0696 200.346 58.028C199.93 58.028 199.42 57.8547 198.81 57.522C197.676 56.919 196.689 55.7961 196.005 54.2711C195.763 53.7305 195.515 53.4532 195.126 53.4532C194.441 53.4532 194.126 54.1949 194.126 54.9296C194.126 56.7665 196.354 58.4162 198.682 59.4489C199.306 59.7401 199.145 60.1144 198.696 60.7729C197.266 62.8107 195.528 64.7238 194.113 66.1517C192.811 67.4756 192.274 67.8291 191.623 67.8291C190.791 67.8291 189.516 66.9835 188.308 66.2695C188.04 66.1032 187.771 66.02 187.49 66.02C186.503 66.02 186 67.3578 186 68.5292L186.013 68.5223Z" fill="#0A0A0D"/>
</g>
<g clip-path="url(#clip1_12_601)">
<path d="M136.463 59.5001C136.463 65.5587 131.559 70.463 125.5 70.463V59.5001H136.463ZM125.5 48.5371V59.5001H114.537C114.537 53.4414 119.441 48.5371 125.5 48.5371Z" fill="#0A0A0D"/>
<path d="M125.5 48.537V49.1381C131.213 49.1381 135.862 53.7859 135.862 59.5H136.463C136.463 53.4457 131.554 48.537 125.5 48.537ZM125.5 69.8619C119.787 69.8619 115.138 65.2141 115.138 59.5H114.537C114.537 65.5543 119.446 70.463 125.5 70.463M125.5 41C115.283 41 107 49.283 107 59.5C107 69.717 115.283 78 125.5 78C135.717 78 144 69.717 144 59.5C144 49.283 135.717 41 125.5 41ZM142.797 59.5C142.797 69.0524 135.053 76.797 125.5 76.797C115.947 76.797 108.203 69.0524 108.203 59.5C108.203 49.9476 115.948 42.203 125.5 42.203C135.052 42.203 142.797 49.9476 142.797 59.5Z" fill="#0A0A0D"/>
<path d="M117.595 50.5755C118.186 49.9571 118.52 49.2426 117.929 48.5605C117.608 48.1904 117.067 48.1094 116.62 48.2918L116.575 48.3091L116.589 48.2702C116.656 48.0943 116.698 47.5331 116.217 47.1457C115.982 46.9568 115.687 46.8866 115.39 46.9169C114.834 46.973 114.407 47.3496 113.244 48.6372C112.893 49.0257 112.383 49.6387 112.076 50.0358L115.27 53.0447C116.329 51.8813 116.76 51.4486 117.595 50.5755ZM113.427 49.8394C114.07 49.0581 114.754 48.349 115.064 48.0684C115.161 47.9799 115.268 47.8914 115.397 47.8569C115.607 47.7997 115.823 47.9475 115.872 48.1612C115.921 48.376 115.785 48.58 115.634 48.7483C115.294 49.1293 114.046 50.4254 114.046 50.4254L113.427 49.8394ZM114.678 51.0179C114.678 51.0179 115.893 49.7423 116.289 49.3343C116.447 49.1725 116.548 49.0742 116.657 49.0214C116.797 48.9534 116.95 48.9393 117.087 49.03C117.222 49.1196 117.284 49.2739 117.25 49.4272C117.21 49.6095 117.06 49.7833 116.936 49.916C116.769 50.0941 115.328 51.6255 115.325 51.6277L114.678 51.0179ZM125.866 46.987L126.888 44.712L126.953 44.5102L126.935 44.7206L127.042 47.7608C127.401 47.7943 127.772 47.8439 128.137 47.9044L127.971 43.4018C127.46 43.3457 126.951 43.3058 126.443 43.2842L125.435 45.7675L125.399 45.952L125.363 45.7675L124.357 43.2842C123.849 43.3058 123.34 43.3457 122.829 43.4018L122.663 47.9044C123.028 47.8439 123.399 47.7954 123.757 47.7608L123.865 44.7206L123.846 44.5102L123.912 44.712L124.934 46.987H125.866ZM134.358 51.6935C134.609 51.9612 134.971 52.3929 135.174 52.6551L138.917 50.2959C138.73 50.0531 138.432 49.684 138.21 49.4239L135.839 50.9802L135.678 51.1183L135.798 50.9435L136.845 48.8692L136.105 48.1342L134.015 49.1735L133.839 49.2933L133.979 49.1325L135.547 46.7798C135.271 46.5467 135.006 46.333 134.668 46.074L132.292 49.7876C132.593 50.0175 132.99 50.3553 133.243 50.5852L135.48 49.4325L135.623 49.3279L135.518 49.4703L134.358 51.6935Z" fill="#0A0A0D"/>
</g>
<g clip-path="url(#clip2_12_601)">
<mask id="mask0_12_601" style="mask-type:luminance" maskUnits="userSpaceOnUse" x="16" y="48" width="49" height="24">
<path d="M65 48H16V72H65V48Z" fill="white"/>
</mask>
<g mask="url(#mask0_12_601)">
<path fill-rule="evenodd" clip-rule="evenodd" d="M16 72H40.7641L65 48H16V72Z" fill="#0A0A0D"/>
<path fill-rule="evenodd" clip-rule="evenodd" d="M45.0793 52.5129L40.256 52.51V63.865L36.0425 52.51H31.8647L28.2672 62.0059C27.8841 59.6116 25.3825 58.7848 23.4144 58.1649C22.1149 57.7517 20.7361 57.144 20.7488 56.4723C20.7596 55.9209 21.4884 55.4088 22.9324 55.4858C23.9032 55.5368 24.759 55.6143 26.4626 56.4277L28.1382 53.5387C26.5831 52.7554 24.4346 52.2602 22.6742 52.2583H22.664C20.6111 52.2583 18.9 52.9169 17.8395 54.0023C17.1003 54.7603 16.7022 55.723 16.6855 56.7881C16.6586 58.2532 17.2013 59.293 18.3417 60.1219C19.3046 60.8212 20.5361 61.2742 21.6215 61.6074C22.9607 62.0182 24.0535 62.3751 24.0408 63.137C24.0309 63.4141 23.9247 63.6725 23.7234 63.8825C23.3898 64.2234 22.8769 64.3515 22.1687 64.3647C20.8026 64.3932 19.7892 64.1812 18.1751 63.237L16.6855 66.1668C18.2951 67.0732 20.201 67.6048 22.1457 67.6048L22.3959 67.6019C24.0888 67.5718 25.455 67.0942 26.5462 66.2241C26.6089 66.1751 26.6652 66.1247 26.7231 66.0738L26.2391 67.3531H30.6207L31.3561 65.1388C32.1257 65.3992 33.0014 65.5431 33.9317 65.5431C34.8368 65.5431 35.6896 65.4055 36.4455 65.1605L37.1542 67.3531H44.2999V62.7685H45.858C49.6254 62.7685 51.8533 60.8689 51.8533 57.686C51.8533 54.1402 49.6887 52.5129 45.0793 52.5129ZM33.9319 62.229C33.369 62.229 32.8415 62.1316 32.3865 61.9614L33.9153 57.1857H33.9442L35.4465 61.9749C34.9949 62.1336 34.4794 62.229 33.9319 62.229ZM45.3625 59.485H44.3001V55.6367H45.3625C46.7797 55.6367 47.9097 56.1027 47.9097 57.5354C47.9097 59.0179 46.7797 59.485 45.3625 59.485Z" fill="white"/>
</g>
</g>
<path d="M263 45C271.476 45.0057 279.952 45.0009 288.429 45.0024C289.965 45.0006 291.5 45.0057 293.036 45C293.035 51.9383 293.049 58.8765 293.049 65.8148C293.056 68.5905 293.06 71.3666 293.064 74.1424C283.043 74.143 273.023 74.143 263.002 74.1424C263.003 67.4025 263.002 60.6625 263.002 53.9226C263.001 50.9485 263.006 47.9741 263 45ZM275.186 50.8323C275.184 56.2697 275.187 61.7074 275.184 67.1448C276.409 67.5361 277.637 67.9147 278.859 68.3125C278.858 63.9245 278.859 59.5365 278.859 55.1487C278.861 54.8653 278.846 54.5789 278.896 54.2985C278.94 54.0775 279.034 53.8309 279.249 53.7255C279.402 53.6482 279.58 53.6889 279.728 53.7542C279.92 53.836 280.092 53.9825 280.171 54.1796C280.385 54.632 280.331 55.1448 280.338 55.6301C280.338 57.2675 280.337 58.9053 280.338 60.5427C280.342 60.6104 280.436 60.6107 280.483 60.6416C280.892 60.8216 281.327 60.9492 281.773 60.9905C282.273 61.0148 282.799 60.9309 283.218 60.6416C283.655 60.3582 283.962 59.9118 284.149 59.4328C284.39 58.7944 284.459 58.1036 284.444 57.4254C284.419 56.6798 284.347 55.924 284.081 55.2212C283.852 54.5918 283.451 54.0268 282.933 53.6029C282.596 53.3037 282.2 53.085 281.809 52.8678C280.891 52.4158 279.914 52.1036 278.937 51.8088C277.7 51.4323 276.451 51.0983 275.186 50.8323ZM270.098 62.2466C269.542 62.4488 268.978 62.631 268.432 62.858C268.058 63.0192 267.683 63.1876 267.346 63.4185C267.147 63.5429 266.944 63.6828 266.824 63.891C266.745 64.0446 266.68 64.2178 266.716 64.393C266.773 64.7762 267.071 65.067 267.384 65.2657C267.65 65.4244 267.933 65.5583 268.23 65.6476C268.659 65.7923 269.098 65.9043 269.536 66.0194C270.234 66.1617 270.941 66.2716 271.654 66.3007C272.262 66.3144 272.872 66.3138 273.477 66.2404C273.808 66.2237 274.131 66.1449 274.459 66.105C274.451 65.4655 274.457 64.8256 274.455 64.186C273.888 64.4002 273.315 64.5979 272.746 64.8064C272.263 64.9844 271.748 65.0754 271.232 65.0658C270.898 65.0641 270.547 65.0428 270.246 64.884C270.154 64.8331 270.052 64.7378 270.08 64.6228C270.097 64.5128 270.193 64.4428 270.276 64.3801C270.435 64.2795 270.611 64.2058 270.789 64.145C272.01 63.7073 273.231 63.2693 274.453 62.8332C274.461 62.1211 274.446 61.4081 274.461 60.6961C273.008 61.2164 271.552 61.7296 270.098 62.2466ZM283.339 61.6319C282.059 61.6945 280.785 61.9309 279.572 62.3479C279.577 63.0842 279.574 63.8209 279.573 64.5575C280.721 64.1507 281.871 63.7472 283.02 63.3415C283.399 63.21 283.774 63.0567 284.174 63.0009C284.621 62.9293 285.079 62.9207 285.526 62.9973C285.692 63.0249 285.854 63.0881 285.991 63.1879C286.068 63.2451 286.109 63.3577 286.06 63.4461C285.942 63.6366 285.729 63.7316 285.526 63.8041C283.543 64.5158 281.557 65.2186 279.574 65.9313C279.573 66.6416 279.576 67.3521 279.573 68.0624C282.249 67.0969 284.929 66.1398 287.604 65.1725C287.989 65.0299 288.357 64.8412 288.699 64.615C288.883 64.4745 289.082 64.3388 289.205 64.1381C289.316 63.9688 289.393 63.7588 289.346 63.5554C289.291 63.264 289.084 63.0291 288.851 62.8577C288.59 62.6558 288.282 62.5303 287.98 62.4042C287.654 62.3029 287.338 62.1687 287.007 62.0804C286.483 61.9246 285.946 61.8183 285.406 61.7416C285.056 61.7083 284.707 61.6493 284.355 61.6481C284.016 61.6373 283.677 61.611 283.339 61.6319Z" fill="#0A0A0D"/>
<g clip-path="url(#clip3_12_601)">
<mask id="mask1_12_601" style="mask-type:luminance" maskUnits="userSpaceOnUse" x="335" y="45" width="39" height="30">
<path d="M374 45H335V75H374V45Z" fill="white"/>
</mask>
<g mask="url(#mask1_12_601)">
<path d="M345.22 45H349.457V75H345.22V45ZM363.38 45V48.6198H366.665V75H370.769V48.6198H374V45H363.38ZM335 75H339.105V61.3899H342.6V57.8197H339.105V48.6198H343.665V45H335V75ZM363.924 73.0348C363.925 73.6922 363.926 74.3473 363.926 75H360.086C360.083 73.8651 360.081 72.7245 360.079 71.5784C360.076 70.434 360.07 69.2877 360.058 68.1452C360.034 65.8626 359.982 63.5888 359.865 61.3899H355.349V75H351.663V45H360.325C360.849 46.032 361.294 47.1039 361.655 48.2059C362.029 49.3447 362.338 50.5044 362.582 51.6791C362.833 52.8734 363.033 54.1049 363.194 55.3579C363.355 56.6106 363.477 57.8922 363.572 59.1853C363.666 60.4777 363.734 61.7925 363.783 63.1086C363.832 64.4233 363.863 65.7568 363.883 67.0802C363.904 68.4004 363.914 69.7416 363.919 71.0568C363.922 71.7178 363.924 72.3771 363.924 73.0348ZM359.603 57.8197C359.273 54.3895 358.707 51.2147 357.728 48.6198H355.349V57.8197H359.603Z" fill="#0A0A0D"/>
</g>
</g>
<g clip-path="url(#clip4_12_601)">
<mask id="mask2_12_601" style="mask-type:luminance" maskUnits="userSpaceOnUse" x="39" y="132" width="72" height="30">
<path d="M111 132H39V162H111V132Z" fill="white"/>
</mask>
<g mask="url(#mask2_12_601)">
<path d="M49.0976 139.984H43.0283V142.038H49.0976V139.984Z" fill="#0A0A0D"/>
<path d="M49.0976 143.976H43.0283V146.03H49.0976V143.976Z" fill="#0A0A0D"/>
<path d="M49.0976 147.969H43.0283V150.023H49.0976V147.969Z" fill="#0A0A0D"/>
<path d="M49.0976 151.961H43.0283V154.014H49.0976V151.961Z" fill="#0A0A0D"/>
<path d="M53.1249 155.954H39.1104V158.007H53.1249V155.954Z" fill="#0A0A0D"/>
<path d="M53.1249 159.946H39.1104V162H53.1249V159.946Z" fill="#0A0A0D"/>
<path d="M53.0145 135.992H39V138.045H53.0145V135.992Z" fill="#0A0A0D"/>
<path d="M53.0145 132H39V134.053H53.0145V132Z" fill="#0A0A0D"/>
<path d="M93.6767 142.038L92.9595 139.984H82.917V142.038H93.6767Z" fill="#0A0A0D"/>
<path d="M88.9863 146.03V144.889L89.373 146.03H100.49L100.903 144.889V146.03H106.972V143.976H95.5799L94.9733 145.717L94.3655 143.976H82.917V146.03H88.9863Z" fill="#0A0A0D"/>
<path d="M88.9863 147.969H82.917V150.023H88.9863V147.969Z" fill="#0A0A0D"/>
<path d="M99.1591 150.021L99.8565 147.969H90.0908L90.8222 150.021H99.1591Z" fill="#0A0A0D"/>
<path d="M88.9863 151.961H82.917V154.014H88.9863V151.961Z" fill="#0A0A0D"/>
<path d="M88.9863 155.954H79V158.007H88.9863V155.954Z" fill="#0A0A0D"/>
<path d="M88.9863 159.947H79V162H88.9863V159.947Z" fill="#0A0A0D"/>
<path d="M97.7672 154.014L98.4844 151.961H91.4688L92.1797 154.014H97.7672Z" fill="#0A0A0D"/>
<path d="M96.4226 158.007L97.1107 155.954H92.8496L93.581 158.007H96.4226Z" fill="#0A0A0D"/>
<path d="M94.9387 161.995L95.0591 161.998L95.7726 159.946H94.2363L94.9387 161.995Z" fill="#0A0A0D"/>
<path d="M78.8896 135.993V138.045H92.2976L91.6342 135.993H78.8896Z" fill="#0A0A0D"/>
<path d="M78.8896 132V134.053H90.9731L90.256 132H78.8896Z" fill="#0A0A0D"/>
<path d="M106.972 142.038V139.984H96.8771L96.1592 142.038H106.972Z" fill="#0A0A0D"/>
<path d="M106.973 147.969H100.903V150.023H106.973V147.969Z" fill="#0A0A0D"/>
<path d="M106.973 151.961H100.903V154.014H106.973V151.961Z" fill="#0A0A0D"/>
<path d="M111 155.954H100.903V158.007H111V155.954Z" fill="#0A0A0D"/>
<path d="M111 159.947H100.903V162H111V159.947Z" fill="#0A0A0D"/>
<path d="M98.2016 135.994L97.5381 138.045H110.89V135.994H98.2016Z" fill="#0A0A0D"/>
<path d="M99.6353 132L98.918 134.053H110.889V132H99.6353Z" fill="#0A0A0D"/>
<path d="M65.0967 139.984H59.0273V142.038H65.0967V139.984Z" fill="#0A0A0D"/>
<path d="M74.5314 146.03C74.5314 146.03 75.8286 144.976 76.2418 143.977H59.0273V146.03H74.5314Z" fill="#0A0A0D"/>
<path d="M59.0273 147.969V150.021H76.2417C75.8285 149.025 74.5313 147.969 74.5313 147.969H59.0273Z" fill="#0A0A0D"/>
<path d="M65.0967 151.961H59.0273V154.014H65.0967V151.961Z" fill="#0A0A0D"/>
<path d="M77.0702 142.038C77.0702 142.038 77.4563 140.954 77.4563 139.984H71.001V142.038H77.0702Z" fill="#0A0A0D"/>
<path d="M71 151.961V154.014H77.4553C77.4553 153.046 77.0692 151.961 77.0692 151.961H71Z" fill="#0A0A0D"/>
<path d="M55.001 135.994V138.045H77.2893C77.2893 138.045 77.028 136.464 76.574 135.994H55.001Z" fill="#0A0A0D"/>
<path d="M76.574 158.007C77.028 157.537 77.2893 155.954 77.2893 155.954H55.001V158.007H76.574Z" fill="#0A0A0D"/>
<path d="M55.001 132V134.053H74.9722C74.9722 134.053 72.9306 132 70.2287 132H55.001Z" fill="#0A0A0D"/>
<path d="M70.2287 161.998C72.9306 161.998 74.9722 159.946 74.9722 159.946H55.001V161.998H70.2287Z" fill="#0A0A0D"/>
</g>
</g>
<g clip-path="url(#clip5_12_601)">
<mask id="mask3_12_601" style="mask-type:luminance" maskUnits="userSpaceOnUse" x="183" y="132" width="31" height="30">
<path d="M214 132H183V162H214V132Z" fill="white"/>
</mask>
<g mask="url(#mask3_12_601)">
<path fill-rule="evenodd" clip-rule="evenodd" d="M183 144.62C183 140.941 184.121 137.918 186.364 135.55C188.608 133.183 191.56 132 195.218 132C198.833 132 201.761 133.183 204.005 135.55C206.248 137.916 207.369 140.94 207.369 144.62C207.369 148.127 206.226 151.107 203.94 153.56C201.653 156.016 198.746 157.242 195.218 157.242C191.646 157.242 188.717 156.016 186.43 153.562C184.143 151.107 183 148.126 183 144.62ZM187.704 144.62C187.704 147.031 188.347 149.136 189.632 150.932C190.916 152.729 192.779 153.627 195.218 153.627C197.613 153.627 199.454 152.729 200.739 150.931C202.023 149.135 202.665 147.03 202.665 144.622C202.665 142.211 201.99 140.106 200.64 138.31C199.29 136.514 197.483 135.614 195.218 135.614C192.953 135.614 191.133 136.513 189.762 138.31C188.39 140.107 187.704 142.211 187.704 144.62ZM213.969 161.976H206.913V160.135L207.73 159.412C208.273 158.929 208.698 158.525 209.003 158.195C209.308 157.868 209.678 157.44 210.114 156.914C210.496 156.465 210.835 155.98 211.126 155.467C211.366 155.029 211.485 154.613 211.485 154.219C211.491 154.014 211.446 153.81 211.355 153.627C211.264 153.443 211.13 153.285 210.964 153.166C210.626 152.908 210.212 152.769 209.788 152.774C209.003 152.774 208.175 153.058 207.304 153.627L207.174 151.852C208.148 151.367 209.222 151.119 210.309 151.13C212.531 151.13 213.642 152.158 213.642 154.219C213.642 154.92 213.381 155.687 212.858 156.52C212.335 157.352 211.899 157.954 211.552 158.327C210.928 158.982 210.296 159.628 209.656 160.267H213.969V161.976Z" fill="#0A0A0D"/>
</g>
</g>
<g clip-path="url(#clip6_12_601)">
<mask id="mask4_12_601" style="mask-type:luminance" maskUnits="userSpaceOnUse" x="286" y="132" width="67" height="30">
<path d="M353 132H286V162H353V132Z" fill="white"/>
</mask>
<g mask="url(#mask4_12_601)">
<path d="M319.5 132.292C301.228 132.292 286 138 286 146.565C286 155.13 301.228 160.815 319.5 160.815C323.961 160.838 328.416 160.482 332.82 159.75C332.458 159.132 332.264 158.424 332.259 157.702C332.259 155.025 334.976 152.843 338.311 152.843C341.122 152.843 343.489 154.38 344.137 156.465C349.635 153.998 353 150.6 353 146.565C353 138 337.823 132.292 319.5 132.292Z" fill="#0A0A0D"/>
<path d="M309.661 146.753C310.07 146.615 310.426 146.346 310.678 145.986C310.929 145.626 311.063 145.194 311.06 144.75C311.06 144.195 310.846 143.663 310.465 143.271C310.084 142.878 309.567 142.658 309.028 142.658H306.115C306.072 142.658 306.03 142.667 305.991 142.684C305.951 142.701 305.916 142.726 305.886 142.757C305.856 142.788 305.832 142.826 305.817 142.867C305.801 142.908 305.793 142.951 305.794 142.995V149.25C305.794 149.294 305.803 149.337 305.819 149.377C305.835 149.417 305.859 149.453 305.888 149.484C305.918 149.514 305.953 149.539 305.992 149.555C306.031 149.572 306.073 149.58 306.115 149.58H307.062C307.147 149.58 307.228 149.545 307.288 149.484C307.348 149.422 307.382 149.338 307.382 149.25V146.858H308.11L309.465 149.108C309.549 149.245 309.665 149.357 309.802 149.436C309.94 149.515 310.094 149.557 310.251 149.558H311.264C311.293 149.558 311.323 149.55 311.348 149.534C311.374 149.518 311.394 149.495 311.408 149.468C311.422 149.441 311.428 149.41 311.425 149.38C311.423 149.349 311.412 149.32 311.395 149.295L309.661 146.753ZM307.389 144.053H308.795C308.904 144.018 309.019 144.01 309.132 144.029C309.244 144.049 309.351 144.095 309.443 144.165C309.535 144.235 309.609 144.326 309.661 144.431C309.712 144.536 309.739 144.651 309.739 144.769C309.739 144.887 309.712 145.002 309.661 145.107C309.609 145.212 309.535 145.303 309.443 145.373C309.351 145.443 309.244 145.489 309.132 145.509C309.019 145.528 308.904 145.52 308.795 145.485H307.389V144.053ZM325.13 143.003V149.25C325.13 149.338 325.096 149.422 325.036 149.484C324.976 149.545 324.894 149.58 324.809 149.58H323.87C323.785 149.58 323.703 149.545 323.643 149.484C323.583 149.422 323.549 149.338 323.549 149.25V144.683H323.447L322.086 147.975C322.034 148.098 321.948 148.204 321.84 148.278C321.731 148.353 321.604 148.393 321.474 148.395H320.957C320.826 148.393 320.699 148.353 320.591 148.278C320.482 148.204 320.397 148.098 320.345 147.975L318.983 144.683H318.881V149.25C318.881 149.338 318.848 149.422 318.787 149.484C318.727 149.545 318.646 149.58 318.561 149.58H317.614C317.529 149.58 317.448 149.545 317.388 149.484C317.327 149.422 317.294 149.338 317.294 149.25V143.003C317.294 142.915 317.327 142.831 317.388 142.769C317.448 142.708 317.529 142.673 317.614 142.673H318.91C319.076 142.671 319.239 142.721 319.376 142.816C319.514 142.911 319.621 143.047 319.682 143.205L321.204 147.083L322.661 143.213C322.722 143.053 322.829 142.917 322.966 142.82C323.104 142.724 323.266 142.673 323.433 142.673H324.758C324.804 142.665 324.852 142.668 324.897 142.681C324.942 142.694 324.983 142.717 325.019 142.749C325.054 142.78 325.082 142.819 325.102 142.863C325.121 142.907 325.13 142.955 325.13 143.003ZM339.127 143.003V149.25C339.127 149.338 339.093 149.422 339.033 149.484C338.973 149.545 338.891 149.58 338.806 149.58H337.801C337.625 149.581 337.452 149.534 337.299 149.445C337.146 149.355 337.018 149.226 336.928 149.07L334.437 144.75H334.371V149.25C334.371 149.338 334.338 149.422 334.278 149.484C334.217 149.545 334.136 149.58 334.051 149.58H333.097C333.013 149.578 332.934 149.543 332.875 149.481C332.817 149.419 332.784 149.337 332.784 149.25V143.003C332.784 142.917 332.817 142.834 332.875 142.772C332.934 142.71 333.013 142.675 333.097 142.673H334.116C334.291 142.673 334.462 142.72 334.613 142.808C334.765 142.896 334.892 143.022 334.983 143.175L337.466 147.39H337.532V143.003C337.532 142.915 337.566 142.831 337.626 142.769C337.686 142.708 337.767 142.673 337.852 142.673H338.806C338.852 142.667 338.897 142.672 338.94 142.686C338.984 142.7 339.023 142.724 339.057 142.755C339.091 142.786 339.118 142.824 339.136 142.867C339.154 142.91 339.164 142.956 339.163 143.003H339.127ZM303.107 143.168C303.058 143.028 302.969 142.906 302.853 142.817C302.736 142.729 302.596 142.679 302.452 142.673H301.337C301.193 142.679 301.053 142.729 300.936 142.817C300.82 142.906 300.731 143.028 300.682 143.168L298.81 149.25C298.799 149.287 298.796 149.326 298.802 149.364C298.808 149.402 298.823 149.439 298.844 149.47C298.866 149.501 298.895 149.527 298.928 149.545C298.962 149.563 298.999 149.572 299.036 149.573H299.837C300.003 149.578 300.165 149.525 300.297 149.423C300.43 149.321 300.524 149.175 300.566 149.01L300.784 148.26H303.063L303.282 149.01C303.323 149.175 303.418 149.321 303.55 149.423C303.683 149.525 303.845 149.578 304.01 149.573H304.782C304.82 149.572 304.857 149.563 304.89 149.545C304.923 149.527 304.952 149.501 304.974 149.47C304.996 149.439 305.01 149.402 305.016 149.364C305.022 149.326 305.019 149.287 305.008 149.25L303.107 143.168ZM301.134 146.858L301.862 144.21H301.898L302.626 146.858H301.134ZM330.155 143.168C330.106 143.028 330.017 142.906 329.9 142.817C329.784 142.729 329.644 142.679 329.499 142.673H328.392C328.246 142.672 328.104 142.72 327.986 142.809C327.868 142.898 327.78 143.024 327.737 143.168L325.858 149.25C325.846 149.288 325.844 149.327 325.85 149.366C325.856 149.405 325.871 149.442 325.894 149.473C325.917 149.505 325.947 149.53 325.981 149.547C326.015 149.565 326.053 149.573 326.091 149.573H326.863C327.027 149.572 327.186 149.517 327.317 149.415C327.448 149.314 327.544 149.172 327.591 149.01L327.802 148.26H330.089L330.3 149.01C330.347 149.172 330.443 149.314 330.574 149.415C330.706 149.517 330.865 149.572 331.029 149.573H331.801C331.838 149.572 331.875 149.563 331.908 149.545C331.942 149.527 331.97 149.501 331.992 149.47C332.014 149.439 332.029 149.402 332.035 149.364C332.041 149.326 332.038 149.287 332.026 149.25L330.155 143.168ZM328.188 146.858L328.917 144.21L329.645 146.858H328.188ZM316.383 143.003V143.798C316.381 143.884 316.347 143.966 316.287 144.026C316.227 144.087 316.147 144.12 316.063 144.12H314.825V149.25C314.825 149.338 314.791 149.422 314.731 149.484C314.671 149.545 314.589 149.58 314.504 149.58H313.558C313.516 149.58 313.474 149.572 313.435 149.555C313.396 149.539 313.361 149.514 313.331 149.484C313.301 149.453 313.278 149.417 313.262 149.377C313.246 149.337 313.237 149.294 313.237 149.25V144.15H311.999C311.915 144.15 311.835 144.117 311.775 144.056C311.715 143.996 311.681 143.914 311.679 143.828V143.003C311.679 142.915 311.713 142.831 311.773 142.769C311.833 142.708 311.914 142.673 311.999 142.673H316.063C316.148 142.673 316.229 142.708 316.289 142.769C316.35 142.831 316.383 142.915 316.383 143.003ZM297.995 143.003V149.25C297.995 149.338 297.961 149.422 297.901 149.484C297.841 149.545 297.759 149.58 297.674 149.58H296.72C296.635 149.58 296.554 149.545 296.494 149.484C296.434 149.422 296.4 149.338 296.4 149.25V146.85H294.15V149.25C294.15 149.338 294.116 149.422 294.056 149.484C293.996 149.545 293.914 149.58 293.829 149.58H292.875C292.79 149.58 292.709 149.545 292.649 149.484C292.588 149.422 292.555 149.338 292.555 149.25V143.003C292.555 142.917 292.587 142.834 292.646 142.772C292.704 142.71 292.784 142.675 292.868 142.673H293.822C293.907 142.673 293.988 142.708 294.048 142.769C294.109 142.831 294.142 142.915 294.142 143.003V145.5H296.393V143.003C296.393 142.915 296.426 142.831 296.486 142.769C296.547 142.708 296.628 142.673 296.713 142.673H297.652C297.696 142.67 297.74 142.676 297.782 142.691C297.823 142.706 297.861 142.73 297.893 142.761C297.925 142.792 297.951 142.829 297.968 142.871C297.986 142.913 297.995 142.957 297.995 143.003ZM346.439 143.003V149.25C346.439 149.337 346.406 149.419 346.347 149.481C346.289 149.543 346.209 149.578 346.126 149.58H345.113C344.937 149.579 344.765 149.532 344.612 149.443C344.459 149.354 344.33 149.225 344.239 149.07L341.756 144.75H341.69V149.25C341.69 149.338 341.657 149.422 341.597 149.484C341.536 149.545 341.455 149.58 341.37 149.58H340.416C340.331 149.58 340.249 149.545 340.189 149.484C340.129 149.422 340.096 149.338 340.096 149.25V143.003C340.096 142.915 340.129 142.831 340.189 142.769C340.249 142.708 340.331 142.673 340.416 142.673H341.436C341.61 142.673 341.781 142.72 341.932 142.808C342.084 142.896 342.211 143.022 342.302 143.175L344.786 147.39H344.851V143.003C344.851 142.915 344.885 142.831 344.945 142.769C345.005 142.708 345.087 142.673 345.171 142.673H346.126C346.21 142.673 346.292 142.708 346.352 142.769C346.412 142.831 346.446 142.915 346.446 143.003H346.439Z" fill="white"/>
<path d="M338.31 161.707C341.194 161.707 343.532 159.914 343.532 157.702C343.532 155.49 341.194 153.697 338.31 153.697C335.427 153.697 333.089 155.49 333.089 157.702C333.089 159.914 335.427 161.707 338.31 161.707Z" fill="#0A0A0D"/>
<path d="M340.867 156.825H339.163V155.25C339.163 155.174 339.134 155.102 339.082 155.048C339.03 154.995 338.96 154.965 338.886 154.965H337.706C337.634 154.967 337.566 154.998 337.516 155.051C337.465 155.104 337.437 155.176 337.437 155.25V156.825H335.762C335.726 156.825 335.69 156.832 335.656 156.847C335.623 156.861 335.592 156.882 335.566 156.908C335.541 156.935 335.52 156.966 335.506 157.001C335.492 157.036 335.485 157.073 335.485 157.11V158.295C335.485 158.371 335.514 158.443 335.566 158.497C335.618 158.55 335.689 158.58 335.762 158.58H337.466V160.155C337.466 160.229 337.495 160.299 337.545 160.351C337.596 160.403 337.664 160.433 337.736 160.433H338.886C338.922 160.434 338.958 160.427 338.992 160.414C339.025 160.4 339.056 160.38 339.082 160.354C339.107 160.328 339.128 160.297 339.142 160.263C339.156 160.229 339.163 160.192 339.163 160.155V158.58H340.867C340.903 158.58 340.939 158.573 340.972 158.558C341.005 158.544 341.035 158.523 341.06 158.496C341.085 158.47 341.105 158.438 341.118 158.404C341.131 158.369 341.138 158.332 341.137 158.295V157.11C341.138 157.073 341.131 157.036 341.118 157.002C341.105 156.967 341.085 156.935 341.06 156.909C341.035 156.882 341.005 156.861 340.972 156.847C340.939 156.832 340.903 156.825 340.867 156.825Z" fill="white"/>
</g>
</g>
<g clip-path="url(#clip7_12_601)">
<mask id="mask5_12_601" style="mask-type:luminance" maskUnits="userSpaceOnUse" x="16" y="218" width="110" height="18">
<path d="M126 218H16V236H126V218Z" fill="white"/>
</mask>
<g mask="url(#mask5_12_601)">
<mask id="mask6_12_601" style="mask-type:luminance" maskUnits="userSpaceOnUse" x="16" y="218" width="110" height="18">
<path d="M125.656 218.36H16.3438V235.64H125.656V218.36Z" fill="white"/>
</mask>
<g mask="url(#mask6_12_601)">
<path d="M41.5367 218.614L35.766 235.133H41.1391L41.7023 233.202H47.3332L47.8964 235.133H53.268L47.4954 218.614H41.5353H41.5367ZM42.9688 228.842L44.5168 223.519L46.0643 228.843L42.9688 228.842ZM97.8118 226.639L102.69 218.614H97.0838L94.5964 223.32L92.0623 218.614H86.5024L91.3816 226.662L86.1504 235.133H91.7343L94.5964 230.08L97.4591 235.133H103.042L97.8104 226.639H97.8118ZM25.6353 226.539L22.8892 218.614H16.3438V235.133H21.0819V225.202L24.5766 235.133H26.6888L30.184 225.202V235.133H34.9216V218.614H28.3762L25.6315 226.539H25.6353ZM80.4529 235.133H85.1914V218.614H80.4529V235.133ZM79.1183 224.285C79.1183 221.19 77.1487 218.613 73.4879 218.613H65.1358V235.132H69.8754V229.931H71.5876L73.7452 235.132H79.1416L76.3028 229.287C77.5473 228.644 79.1183 227.133 79.1183 224.285ZM72.761 225.573H69.8764V222.973H72.761C73.5596 222.973 74.3099 223.369 74.3099 224.26C74.3099 225.151 73.5596 225.573 72.761 225.573ZM50.9223 222.973H55.1215V235.133H59.8606V222.975H64.0365V218.614H50.9218L50.9223 222.973Z" fill="#0A0A0D"/>
<path d="M111.3 218.608H104.73L99.8574 226.63L103.432 232.481H107.07V235.132H111.3V232.481H113.107V228.12H111.3V218.608ZM107.07 228.121H103.903L107.07 222.918V228.121ZM120.634 231.045C124.201 228.022 125.54 226.19 125.54 223.884C125.54 220.54 123.098 218.36 119.461 218.36C117.115 218.36 114.956 219.301 113.453 221.135L115.987 224.132C116.95 223.092 118.053 222.496 119.391 222.496C120.376 222.496 121.056 223.116 121.056 223.934C121.056 225.297 120.329 225.989 114.016 231.366V235.132H125.656V231.043H120.634V231.045Z" fill="#0A0A0D"/>
</g>
</g>
</g>
<g clip-path="url(#clip8_12_601)">
<mask id="mask7_12_601" style="mask-type:luminance" maskUnits="userSpaceOnUse" x="178" y="215" width="86" height="24">
<path d="M264 215H178V239H264V215Z" fill="white"/>
</mask>
<g mask="url(#mask7_12_601)">
<path d="M264 215H178V239H264V215Z" fill="#0A0A0D"/>
<path d="M183.733 229.738V228.883H186.596V229.971C186.576 231.215 188.458 231.376 188.701 230.225C188.778 229.952 188.771 229.66 188.683 229.39C188.129 227.932 184.343 227.272 183.862 225C183.764 224.501 183.758 223.986 183.844 223.485C184.14 221.66 185.672 221 187.574 221C189.088 221 191.175 221.369 191.175 223.816V224.612H188.516V223.913C188.588 222.693 186.749 222.509 186.541 223.66C186.511 223.854 186.517 224.052 186.559 224.243C186.872 225.544 190.917 226.243 191.361 228.593C191.472 229.202 191.478 229.827 191.379 230.438C191.12 232.301 189.532 233 187.612 233C185.597 233 183.733 232.243 183.733 229.738ZM218.414 229.7V228.845H221.24V229.913C221.201 231.146 223.074 231.323 223.324 230.184C223.401 229.917 223.395 229.632 223.306 229.368C222.77 227.932 219.021 227.269 218.542 225C218.444 224.507 218.437 223.999 218.523 223.504C218.821 221.699 220.355 221.039 222.218 221.039C223.715 221.039 225.782 221.428 225.782 223.835V224.612H223.142V223.932C223.217 222.723 221.392 222.527 221.204 223.661C221.173 223.855 221.179 224.053 221.222 224.244C221.517 225.544 225.522 226.224 225.968 228.554C226.079 229.156 226.085 229.775 225.986 230.38C225.727 232.244 224.158 232.924 222.259 232.924C220.262 232.925 218.414 232.165 218.414 229.7ZM228.534 230.109C228.509 229.863 228.503 229.616 228.516 229.37V221.33H231.213V229.621C231.209 229.764 231.215 229.907 231.23 230.049C231.51 231.135 232.983 231.135 233.262 230.049C233.278 229.907 233.284 229.764 233.281 229.621V221.33H235.978V229.368C235.978 229.582 235.96 229.99 235.96 230.107C235.776 232.207 234.205 232.882 232.248 232.882C230.291 232.882 228.719 232.203 228.534 230.107V230.109ZM250.732 229.992C250.705 229.746 250.693 229.498 250.695 229.25V224.534C250.695 224.34 250.713 223.99 250.732 223.795C250.972 221.699 252.579 221.039 254.481 221.039C256.365 221.039 258.026 221.699 258.212 223.796C258.234 224.042 258.24 224.288 258.229 224.535V224.9H255.533V224.282C255.534 224.139 255.522 223.996 255.497 223.854C255.171 222.766 253.698 222.766 253.373 223.854C253.341 224.027 253.329 224.204 253.336 224.38V229.505C253.333 229.648 253.339 229.791 253.355 229.932C253.636 231.05 255.328 231.049 255.57 229.935C255.595 229.794 255.588 229.65 255.589 229.507V227.874H254.499V226.243H258.267V229.25C258.27 229.497 258.257 229.743 258.229 229.988C258.045 232.026 256.366 232.745 254.481 232.745C252.595 232.745 250.917 232.029 250.732 229.99V229.992ZM213.152 232.534L213.08 222.165L211.231 232.534H208.535L206.706 222.165L206.634 232.534H203.973L204.195 221.35H208.535L209.883 230.088L211.231 221.35H215.571L215.811 232.534H213.152ZM198.969 232.534L197.529 222.165L196.051 232.534H193.17L195.128 221.35H199.875L201.833 232.534H198.969ZM244.103 232.417L241.425 223.116L241.573 232.417H238.95V221.35H242.901L245.41 230.359L245.266 221.35H247.907V232.418L244.103 232.417Z" fill="white"/>
</g>
</g>
<g clip-path="url(#clip9_12_601)">
<mask id="mask8_12_601" style="mask-type:luminance" maskUnits="userSpaceOnUse" x="316" y="212" width="49" height="29">
<path d="M365 212H316V241H365V212Z" fill="white"/>
</mask>
<g mask="url(#mask8_12_601)">
<path d="M360.246 222.363H365V220.12H359.282C356.203 220.12 354.937 221.831 354.937 224.509V224.77C354.42 221.618 352.531 220.12 349.072 220.12H343.276C340.938 215.48 336.116 212.29 330.524 212.29C322.673 212.29 316.292 218.622 316.292 226.423C316.292 234.224 322.673 240.546 330.524 240.546C336.077 240.546 340.88 237.404 343.227 232.812H349.14C350.553 232.812 351.829 232.725 353.125 231.701C354.06 230.966 354.644 229.922 354.917 228.559V232.793H357.625V227.815H364.026V225.601H357.616L357.655 224.702C357.664 223.242 358.112 222.363 360.246 222.363ZM349.014 230.57H346.023V222.363H349.014C351.362 222.363 352.209 223.358 352.209 226.471C352.209 229.574 351.371 230.57 349.014 230.57Z" fill="#0A0A0D"/>
<path d="M336.827 225.369H338.6C340.003 225.369 340.831 225.089 340.831 223.909C340.831 222.691 340.003 222.353 338.561 222.353H332.57V220.12H339.545C343.081 220.12 343.588 222.575 343.588 223.948C343.588 225.408 342.984 227.718 339.545 227.718H337.831C335.687 227.718 335.23 228.482 335.23 229.941V230.618H343.237V232.783H332.492V229.642C332.492 226.954 333.759 225.369 336.827 225.369Z" fill="white"/>
</g>
</g>
<g clip-path="url(#clip10_12_601)">
<mask id="mask9_12_601" style="mask-type:luminance" maskUnits="userSpaceOnUse" x="75" y="286" width="97" height="29">
<path d="M172 286H75V315H172V286Z" fill="white"/>
</mask>
<g mask="url(#mask9_12_601)">
<path d="M103.223 314.162H86.3572C80.0362 314.162 75.8223 309.96 75.8223 303.656V286.838H92.6782C98.9992 286.838 103.213 291.04 103.213 297.344V314.162H103.223Z" fill="#0A0A0D"/>
<path d="M125.801 289.961C125.211 289.961 124.863 290.318 124.863 290.838C124.863 291.358 125.211 291.715 125.801 291.715C126.39 291.715 126.738 291.358 126.738 290.838C126.738 290.318 126.39 289.961 125.801 289.961ZM132.731 290.587V293.652C132.344 293.19 131.677 292.804 130.72 292.804C128.952 292.804 127.598 294.153 127.598 295.917C127.598 297.681 128.961 299.03 130.72 299.03C131.716 299.03 132.402 298.616 132.779 298.134L132.817 298.924H134.296V290.587H132.731ZM142.541 290.587V298.924H144.097V290.587H142.541ZM145.392 290.587V298.934H146.871L146.909 298.144C147.286 298.626 147.973 299.04 148.968 299.04C150.737 299.04 152.09 297.691 152.09 295.927C152.09 294.163 150.727 292.814 148.968 292.814C148.011 292.814 147.344 293.199 146.958 293.662V290.587H145.392ZM109.544 291.04V298.924H111.197V295.773H115.034V298.924H116.687V291.04H115.034V294.26H111.197V291.04H109.544ZM167.602 292.804C165.834 292.804 164.481 294.153 164.481 295.917C164.481 297.681 165.843 299.03 167.602 299.03C168.559 299.03 169.226 298.645 169.613 298.182V298.558C169.613 299.57 168.955 300.226 167.941 300.226C166.926 300.226 166.355 299.917 165.872 299.435L164.896 300.409C165.457 301.026 166.462 301.517 167.95 301.517C169.864 301.517 171.178 300.322 171.178 298.404V292.91H169.7L169.661 293.7C169.284 293.219 168.598 292.804 167.602 292.804ZM120.852 292.814C119.093 292.814 117.711 294.076 117.711 295.927C117.711 297.777 118.871 299.04 120.997 299.05C122.35 299.05 123.123 298.568 123.665 298.076L122.689 297.103C122.263 297.556 121.819 297.758 121.065 297.758C120.069 297.758 119.518 297.228 119.344 296.573H123.955C123.974 296.235 123.974 296.149 123.974 295.927C123.974 294.076 122.747 292.814 120.852 292.814ZM138.414 292.814C136.655 292.814 135.272 294.076 135.272 295.927C135.272 297.777 136.442 299.04 138.559 299.05C139.912 299.05 140.685 298.568 141.226 298.076L140.25 297.103C139.825 297.556 139.38 297.758 138.626 297.758C137.631 297.758 137.08 297.228 136.906 296.573H141.516C141.535 296.235 141.536 296.149 141.536 295.927C141.536 294.076 140.308 292.814 138.414 292.814ZM155.937 292.814C154.177 292.814 152.795 294.076 152.795 295.927C152.795 297.777 153.955 299.04 156.082 299.05C157.435 299.05 158.208 298.568 158.749 298.076L157.773 297.103C157.348 297.556 156.903 297.758 156.149 297.758C155.154 297.758 154.603 297.228 154.429 296.573H159.039C159.058 296.235 159.058 296.149 159.058 295.927C159.058 294.076 157.831 292.814 155.937 292.814ZM162.654 292.929C161.069 292.929 160.054 293.941 160.054 295.522V298.924H161.61V295.724C161.61 294.732 162.016 294.327 163.011 294.327H164.055V292.929H162.654ZM125.018 292.949V298.924V298.934H126.574V292.949H125.018ZM120.92 294.105C121.819 294.105 122.321 294.684 122.408 295.31H119.296C119.451 294.693 119.934 294.105 120.92 294.105ZM138.481 294.105C139.38 294.105 139.883 294.684 139.97 295.31H136.858C137.012 294.693 137.496 294.105 138.481 294.105ZM156.004 294.105C156.903 294.105 157.406 294.684 157.493 295.31H154.38C154.535 294.693 155.018 294.105 156.004 294.105ZM130.962 294.115C131.986 294.115 132.779 294.915 132.779 295.927C132.779 296.958 131.986 297.739 130.962 297.739C129.928 297.739 129.145 296.968 129.145 295.927C129.145 294.915 129.937 294.115 130.962 294.115ZM148.726 294.115C149.761 294.115 150.543 294.915 150.543 295.927C150.543 296.958 149.751 297.739 148.726 297.739C147.702 297.739 146.909 296.968 146.909 295.927C146.909 294.915 147.702 294.115 148.726 294.115ZM167.834 294.115C168.859 294.115 169.651 294.915 169.651 295.927C169.651 296.958 168.859 297.739 167.834 297.739C166.8 297.739 166.017 296.968 166.017 295.927C166.017 294.915 166.81 294.115 167.834 294.115ZM145.218 300.987C144.628 300.987 144.28 301.344 144.28 301.864C144.28 302.384 144.628 302.751 145.218 302.741C145.807 302.741 146.155 302.384 146.155 301.864C146.155 301.344 145.807 300.987 145.218 300.987ZM155.009 301.623V309.96H156.565V301.623H155.009ZM109.544 302.066V309.96H111.187V304.842L113.391 308.042H114.115L116.319 304.832V309.95H117.972V302.066H116.455L113.758 306.028L111.1 302.066H109.544ZM127.85 302.336V303.965H126.468V305.363H127.85V307.531C127.85 309.131 128.681 309.96 130.285 309.96H131.6V308.563H130.556C129.792 308.563 129.406 308.177 129.406 307.416V305.363H131.6V303.965H129.406V302.336H127.85ZM122.118 303.849C120.35 303.849 118.996 305.209 118.996 306.963C118.996 308.717 120.35 310.066 122.118 310.056C123.114 310.056 123.8 309.642 124.177 309.16L124.216 309.95H125.694V303.955H124.216L124.177 304.746C123.8 304.264 123.114 303.849 122.118 303.849ZM135.408 303.849C133.649 303.849 132.267 305.112 132.267 306.963C132.267 308.804 133.436 310.066 135.553 310.085C136.906 310.085 137.679 309.603 138.22 309.112L137.244 308.138C136.819 308.591 136.374 308.794 135.62 308.794C134.625 308.794 134.074 308.264 133.9 307.608H138.51C138.53 307.271 138.53 307.184 138.53 306.963C138.53 305.112 137.302 303.849 135.408 303.849ZM150.147 303.849C148.378 303.849 147.025 305.209 147.025 306.963C147.025 308.717 148.378 310.066 150.147 310.056C151.143 310.056 151.829 309.642 152.206 309.16L152.244 309.95H153.723V303.955H152.244L152.206 304.746C151.829 304.264 151.143 303.849 150.147 303.849ZM160.334 303.859C158.778 303.859 157.57 304.505 157.57 305.681C157.57 306.808 158.488 307.281 160.035 307.57C161.359 307.82 161.697 307.975 161.697 308.312C161.697 308.62 161.359 308.804 160.498 308.804C159.667 308.804 158.807 308.534 158.353 308.081L157.377 309.054C157.966 309.642 158.923 310.066 160.382 310.076C162.171 310.076 163.243 309.43 163.243 308.254C163.243 307.088 162.248 306.644 160.846 306.365C159.397 306.076 159.116 305.941 159.116 305.623C159.116 305.314 159.542 305.131 160.305 305.131C161.146 305.131 161.793 305.449 162.151 305.806L163.127 304.832C162.596 304.302 161.649 303.859 160.334 303.859ZM142.135 303.965C140.55 303.965 139.535 304.977 139.535 306.558V309.96H141.091V306.76C141.091 305.767 141.497 305.363 142.492 305.363H143.536V303.965H142.135ZM144.435 303.975V309.96H145.991V303.975H144.435ZM135.475 305.131C136.374 305.131 136.877 305.71 136.964 306.336H133.852C134.006 305.719 134.49 305.131 135.475 305.131ZM122.35 305.151C123.375 305.151 124.167 305.951 124.167 306.963C124.167 307.994 123.375 308.775 122.35 308.775C121.326 308.775 120.533 307.994 120.533 306.963C120.533 305.951 121.326 305.151 122.35 305.151ZM150.379 305.151C151.404 305.151 152.196 305.951 152.196 306.963C152.196 307.994 151.404 308.775 150.379 308.775C149.345 308.775 148.562 307.994 148.562 306.963C148.562 305.951 149.355 305.151 150.379 305.151Z" fill="#0A0A0D"/>
<path d="M90.5713 296.293H92.6783C96.612 296.293 98.9993 298.683 98.9993 302.596V309.95H96.8923C93.0166 309.95 90.5713 307.483 90.5713 303.647V296.293Z" fill="white"/>
<path d="M80.0361 291.04H88.4641V309.95H86.3571C82.4427 309.95 80.0361 307.589 80.0361 303.647V291.04Z" fill="white"/>
</g>
</g>
<g clip-path="url(#clip11_12_601)">
<mask id="mask10_12_601" style="mask-type:luminance" maskUnits="userSpaceOnUse" x="244" y="292" width="84" height="17">
<path d="M328 292H244V309H328V292Z" fill="white"/>
</mask>
<g mask="url(#mask10_12_601)">
<path d="M244 299.305V297.158H245.826V296.414L248.142 293.341H249.27V297.158H251.488V299.305H249.27V304.744C249.27 305.443 249.344 305.902 249.491 306.122C249.646 306.341 249.965 306.451 250.447 306.451C250.716 306.451 251.023 306.394 251.366 306.28V308.732C250.655 308.878 249.965 308.951 249.295 308.951C248.894 308.951 248.514 308.923 248.155 308.866C247.101 308.695 246.419 308.199 246.108 307.378C245.985 307.045 245.908 306.719 245.875 306.402C245.842 306.085 245.826 305.492 245.826 304.622V299.305H244Z" fill="#0A0A0D"/>
<path d="M256.459 301.399V303.454H251.856V301.399H256.459Z" fill="#0A0A0D"/>
<path d="M263.806 296.805C264.623 296.805 265.358 296.923 266.012 297.159C267.303 297.63 268.267 298.455 268.904 299.634C269.394 300.545 269.64 301.659 269.64 302.976C269.64 304.854 269.059 306.354 267.899 307.476C266.845 308.492 265.477 309 263.793 309C262.004 309 260.574 308.431 259.504 307.293C258.45 306.179 257.923 304.711 257.923 302.89C257.923 301.11 258.434 299.675 259.455 298.585C260.566 297.398 262.016 296.805 263.806 296.805ZM263.659 299.207C263.307 299.207 262.997 299.293 262.727 299.463C261.82 300.024 261.367 301.167 261.367 302.89C261.367 303.451 261.42 303.988 261.526 304.5C261.665 305.142 261.931 305.655 262.323 306.037C262.715 306.411 263.173 306.598 263.695 306.598C264.022 306.598 264.325 306.52 264.602 306.366C265.526 305.854 265.987 304.711 265.987 302.939C265.987 302.394 265.938 301.878 265.84 301.39C265.709 300.724 265.444 300.195 265.044 299.805C264.651 299.407 264.19 299.207 263.659 299.207Z" fill="#0A0A0D"/>
<path d="M271.208 308.647V297.159H274.676V298.22C275.485 297.276 276.556 296.805 277.887 296.805C279.432 296.805 280.559 297.317 281.27 298.342C281.711 298.976 281.932 299.968 281.932 301.317V308.647H278.488V301.854C278.488 301.057 278.398 300.496 278.218 300.171C277.932 299.659 277.463 299.402 276.809 299.402C275.959 299.402 275.342 299.813 274.958 300.634C274.754 301.057 274.652 301.842 274.652 302.988V308.647H271.208Z" fill="#0A0A0D"/>
<path d="M284.653 308.646V292H288.097V308.646H284.653Z" fill="#0A0A0D"/>
<path d="M291.111 295.329V292H294.764V295.329H291.111ZM291.209 308.646V297.159H294.653V308.646H291.209Z" fill="#0A0A0D"/>
<path d="M297.51 308.646V297.158H300.978V298.219C301.787 297.276 302.857 296.805 304.189 296.805C305.733 296.805 306.861 297.317 307.572 298.341C308.013 298.975 308.234 299.967 308.234 301.317V308.646H304.79V301.853C304.79 301.057 304.7 300.496 304.52 300.171C304.234 299.658 303.764 299.402 303.111 299.402C302.261 299.402 301.644 299.813 301.26 300.634C301.056 301.057 300.954 301.841 300.954 302.988V308.646H297.51Z" fill="#0A0A0D"/>
<path d="M321.102 303.731H313.43C313.528 305.707 314.251 306.695 315.599 306.695C316.425 306.695 317.009 306.288 317.352 305.475H320.808C320.645 306.085 320.342 306.654 319.901 307.183C318.904 308.394 317.487 309 315.648 309C313.892 309 312.49 308.475 311.445 307.427C310.341 306.313 309.79 304.825 309.79 302.963C309.79 301.24 310.293 299.805 311.298 298.658C312.376 297.423 313.777 296.805 315.501 296.805C316.874 296.805 318.038 297.215 318.994 298.036C319.689 298.638 320.204 299.39 320.539 300.292C320.873 301.187 321.061 302.333 321.102 303.731ZM317.462 301.683C317.413 301.154 317.311 300.707 317.156 300.341C316.805 299.512 316.245 299.097 315.477 299.097C315.109 299.097 314.786 299.203 314.509 299.414C313.904 299.853 313.548 300.61 313.442 301.683H317.462Z" fill="#0A0A0D"/>
<path d="M327.888 304.484H323.705V308.646H327.888V304.484Z" fill="#0A0A0D"/>
</g>
</g>
<g clip-path="url(#clip12_12_601)">
<mask id="mask11_12_601" style="mask-type:luminance" maskUnits="userSpaceOnUse" x="100" y="363" width="72" height="29">
<path d="M172 363H100V392H172V363Z" fill="white"/>
</mask>
<g mask="url(#mask11_12_601)">
<path fill-rule="evenodd" clip-rule="evenodd" d="M171.99 392H100V363H172V392H171.99Z" fill="#0A0A0D"/>
<path fill-rule="evenodd" clip-rule="evenodd" d="M101.44 377.5C101.44 384.629 115.924 390.55 136.006 390.55C156.087 390.55 170.56 384.629 170.56 377.5C170.56 370.372 156.077 364.45 136.006 364.45C115.934 364.45 101.44 370.372 101.44 377.5Z" fill="#F8F8F8"/>
<path d="M133.443 381.853C133.67 382.178 133.917 382.482 134.206 382.756H126.415C126.415 382.452 126.116 381.833 125.786 381.346C125.455 380.859 123.67 378.192 123.67 378.192V381.853C123.67 382.158 123.67 382.452 123.825 382.756H117.334C117.489 382.452 117.489 382.158 117.489 381.853V373.15C117.489 372.846 117.489 372.552 117.334 372.248H123.825C123.67 372.552 123.67 372.846 123.67 373.15V376.954C123.67 376.954 125.744 374.297 126.219 373.678C126.58 373.211 127.024 372.552 127.024 372.248H133.794C133.329 372.552 132.813 373.1 132.39 373.607C132.019 374.053 129.913 376.579 129.913 376.579C129.913 376.579 133.03 381.255 133.443 381.853ZM135.486 373.15V381.853C135.486 382.158 135.486 382.452 135.331 382.756H147.859V379.835C147.549 379.987 147.25 379.987 146.941 379.987H141.667V378.607H146.734V376.396H141.667V375.007H146.941C147.25 375.007 147.549 375.007 147.859 375.149V372.238H135.331C135.486 372.552 135.486 372.846 135.486 373.15ZM165.216 381.853C165.32 382.188 165.495 382.492 165.722 382.756H158.932C158.963 382.452 158.849 382.158 158.726 381.853C158.726 381.853 158.622 381.61 158.478 381.255L158.416 381.103H154.505L154.443 381.265C154.443 381.265 154.329 381.559 154.226 381.863C154.123 382.168 154.009 382.462 154.051 382.766H148.695C148.914 382.5 149.079 382.193 149.18 381.863L152.389 373.161C152.503 372.856 152.616 372.562 152.575 372.258H161.625C161.543 372.562 161.708 372.856 161.821 373.161C162.09 373.82 164.989 381.265 165.216 381.853ZM157.559 378.881L156.61 376.447C156.527 376.224 156.455 375.991 156.404 375.757C156.362 375.992 156.3 376.223 156.218 376.447C156.187 376.548 155.784 377.614 155.32 378.881H157.559ZM114.259 372.248H107.2C107.355 372.552 107.355 372.846 107.355 373.15V381.853C107.355 382.158 107.355 382.452 107.2 382.756H114.259C114.104 382.452 114.104 382.158 114.104 381.853V373.15C114.104 372.846 114.104 372.552 114.259 372.248ZM163.049 373.08C163.018 372.339 163.607 371.72 164.36 371.7H164.453C165.216 371.69 165.846 372.278 165.856 373.029V373.08C165.877 373.84 165.268 374.479 164.484 374.5C163.71 374.52 163.06 373.921 163.039 373.15C163.049 373.13 163.049 373.1 163.049 373.08ZM163.328 373.08C163.328 373.688 163.834 374.185 164.453 374.185C165.072 374.185 165.578 373.688 165.578 373.08C165.578 372.471 165.072 371.974 164.453 371.974C163.854 371.954 163.349 372.41 163.328 372.998V373.08ZM164.174 373.901H163.927V372.238H164.556C164.855 372.248 165.082 372.481 165.082 372.775C165.082 372.978 164.969 373.161 164.783 373.262L165.144 373.901H164.866L164.535 373.313H164.174V373.901ZM164.174 373.08H164.515C164.68 373.09 164.824 372.968 164.824 372.806C164.824 372.643 164.711 372.501 164.546 372.501H164.174V373.08Z" fill="#0A0A0D"/>
</g>
</g>
<g clip-path="url(#clip13_12_601)">
<mask id="mask12_12_601" style="mask-type:luminance" maskUnits="userSpaceOnUse" x="221" y="369" width="72" height="17">
<path d="M293 369H221V386H293V369Z" fill="white"/>
</mask>
<g mask="url(#mask12_12_601)">
<path d="M287.76 385.171V379.603H283.802V385.171H279.053V369.797H283.802V375.048H287.76V369.797H292.51V385.171H287.76ZM272.943 374.352V385.17H268.193V374.352H264.963V369.797H276.172V374.352H272.943ZM257.333 369.797H259.703H262.083V385.171H257.333V369.797ZM250.114 377.484C250.114 379.508 248.5 381.153 246.473 381.153C244.447 381.153 242.8 379.508 242.8 377.484C242.8 375.46 244.447 373.846 246.473 373.846C248.5 373.846 250.114 375.46 250.114 377.484ZM254.484 377.484C254.484 373.055 250.906 369.481 246.473 369.481C242.04 369.481 238.431 373.055 238.431 377.484C238.431 381.912 242.04 385.519 246.473 385.519C250.906 385.519 254.484 381.912 254.484 377.484ZM233.08 369.797L229.914 378.402L226.747 369.797H221.491L228.109 385.171H231.687L238.336 369.797H233.08Z" fill="#0A0A0D"/>
</g>
</g>
<defs>
<clipPath id="clip0_12_601">
<rect width="35" height="26" fill="white" transform="translate(186 47)"/>
</clipPath>
<clipPath id="clip1_12_601">
<rect width="37" height="37" fill="white" transform="translate(107 41)"/>
</clipPath>
<clipPath id="clip2_12_601">
<rect width="49" height="24" fill="white" transform="translate(16 48)"/>
</clipPath>
<clipPath id="clip3_12_601">
<rect width="39" height="30" fill="white" transform="translate(335 45)"/>
</clipPath>
<clipPath id="clip4_12_601">
<rect width="72" height="30" fill="white" transform="translate(39 132)"/>
</clipPath>
<clipPath id="clip5_12_601">
<rect width="31" height="30" fill="white" transform="translate(183 132)"/>
</clipPath>
<clipPath id="clip6_12_601">
<rect width="67" height="30" fill="white" transform="translate(286 132)"/>
</clipPath>
<clipPath id="clip7_12_601">
<rect width="110" height="18" fill="white" transform="translate(16 218)"/>
</clipPath>
<clipPath id="clip8_12_601">
<rect width="86" height="24" fill="white" transform="translate(178 215)"/>
</clipPath>
<clipPath id="clip9_12_601">
<rect width="49" height="29" fill="white" transform="translate(316 212)"/>
</clipPath>
<clipPath id="clip10_12_601">
<rect width="97" height="29" fill="white" transform="translate(75 286)"/>
</clipPath>
<clipPath id="clip11_12_601">
<rect width="84" height="17" fill="white" transform="translate(244 292)"/>
</clipPath>
<clipPath id="clip12_12_601">
<rect width="72" height="29" fill="white" transform="translate(100 363)"/>
</clipPath>
<clipPath id="clip13_12_601">
<rect width="72" height="17" fill="white" transform="translate(221 369)"/>
</clipPath>
</defs>
</svg>
