<svg width="113" height="29" viewBox="0 0 113 29" fill="none" xmlns="http://www.w3.org/2000/svg">
<g clip-path="url(#clip0_1_133)">
<path d="M35.667 22.8611H36.7285V26.4596H38.6393V27.4122H35.667V22.8611ZM39.9131 26.1421C39.9662 26.5655 40.2316 26.7772 40.7623 26.7772C41.1339 26.7772 41.4523 26.6713 41.8239 26.4596V27.2005C41.3993 27.4122 41.0808 27.518 40.6562 27.518C39.5947 27.518 39.0108 26.9359 39.0108 25.9304C39.0108 24.925 39.6477 24.2899 40.6031 24.2899C41.5054 24.2899 42.0362 24.872 42.0362 25.8775V26.195H39.9131V26.1421ZM41.0277 25.5071C40.9747 25.1366 40.8154 24.925 40.497 24.925C40.1785 24.925 39.9662 25.1366 39.86 25.5071H41.0277ZM42.62 24.5016C43.0977 24.2899 43.4692 24.1841 43.8939 24.1841C44.4246 24.1841 44.7431 24.3428 44.9023 24.5545C45.0085 24.7133 45.0085 24.872 45.0085 25.2954V27.3063C44.5308 27.3593 44 27.4122 43.6285 27.4122C42.7793 27.4122 42.4077 27.1476 42.4077 26.5126C42.4077 25.8246 42.8323 25.5071 44.1062 25.4012V25.1896C44.1062 25.0308 44 24.925 43.7877 24.925C43.4162 24.925 43.0446 25.0308 42.62 25.2425V24.5016ZM44.1592 26.0892C43.5223 26.1421 43.31 26.248 43.31 26.5126C43.31 26.7242 43.4162 26.7772 43.6816 26.7772C43.8408 26.7772 43.9469 26.7772 44.1062 26.7242L44.1592 26.0892ZM47.6623 22.6494H48.6708V27.3063C48.14 27.4122 47.8215 27.4651 47.3969 27.4651C46.1762 27.4651 45.5392 26.9359 45.5392 25.8775C45.5392 24.872 46.1762 24.237 47.2377 24.237C47.3969 24.237 47.5031 24.237 47.6623 24.2899V22.6494ZM47.6623 25.0837C47.5561 25.0308 47.45 25.0308 47.3438 25.0308C46.8131 25.0308 46.5477 25.3483 46.5477 25.8775C46.5477 26.4067 46.8131 26.6713 47.3438 26.6713C47.45 26.6713 47.5031 26.6713 47.7154 26.6184L47.6623 25.0837ZM49.4138 22.8082H50.4223V23.8136H49.4138V22.8082ZM49.4138 24.2899H50.4223V27.4122H49.4138V24.2899ZM51.1654 24.4487C51.8023 24.2899 52.2269 24.237 52.7046 24.237C53.2353 24.237 53.5538 24.3428 53.8192 24.5545C54.0315 24.7662 54.0846 24.9779 54.0846 25.5071V27.4122H53.0761V25.5071C53.0761 25.1366 52.97 25.0308 52.5984 25.0308C52.4392 25.0308 52.333 25.0308 52.1738 25.0837V27.4122H51.1654V24.4487ZM54.6684 27.9414C55.0399 28.1531 55.3584 28.206 55.7299 28.206C56.0484 28.206 56.3138 28.1531 56.473 27.9414C56.6322 27.7826 56.6322 27.6239 56.6853 27.2534C56.473 27.3593 56.3138 27.4122 56.0484 27.4122C55.1992 27.4122 54.6153 26.8301 54.6153 25.9304C54.6153 24.8191 55.4115 24.1841 56.8976 24.1841C57.3222 24.1841 57.6407 24.237 58.1715 24.3428V25.1366C57.9061 25.0837 57.7999 25.0837 57.6407 25.0308V26.8301C57.6407 27.518 57.5876 27.9414 57.4284 28.206C57.1099 28.7352 56.5792 28.9998 55.783 28.9998C55.4115 28.9998 55.093 28.9469 54.7215 28.7881V27.9414H54.6684ZM56.6853 26.3538V25.9834V25.0308C56.3669 25.0308 56.2076 25.0308 56.0484 25.1366C55.783 25.2954 55.6238 25.5071 55.6238 25.8775C55.6238 26.3538 55.8892 26.6713 56.3138 26.6713C56.4199 26.6713 56.5261 26.6713 56.6853 26.6184V26.3538ZM60.0822 22.914C60.6661 22.8611 61.0907 22.8611 61.4622 22.8611C62.0991 22.8611 62.4707 22.914 62.7891 23.0728C63.1607 23.2845 63.373 23.602 63.373 24.0782C63.373 24.5545 63.1607 24.872 62.5768 25.0837C63.2137 25.2954 63.4791 25.6129 63.4791 26.195C63.4791 26.7242 63.2137 27.0418 62.736 27.2534C62.4176 27.4122 61.993 27.4651 61.2499 27.4651C60.8784 27.4651 60.4537 27.4651 60.0291 27.4122V22.914H60.0822ZM61.0907 24.7133H61.2499C61.8337 24.7133 61.993 24.7133 62.1522 24.5545C62.2584 24.4487 62.3114 24.2899 62.3114 24.1312C62.3114 23.7607 62.046 23.602 61.5153 23.602H61.0907V24.7133ZM61.0907 26.6184H61.6214C62.1522 26.6184 62.4707 26.4067 62.4707 26.0363C62.4707 25.6658 62.1522 25.4542 61.5684 25.4542H61.1437L61.0907 26.6184ZM64.9122 26.1421C64.9653 26.5655 65.2306 26.7772 65.7614 26.7772C66.1329 26.7772 66.4514 26.6713 66.8229 26.4596V27.2005C66.3983 27.4122 66.0799 27.518 65.6553 27.518C64.5937 27.518 64.0099 26.9359 64.0099 25.9304C64.0099 24.925 64.6468 24.2899 65.6022 24.2899C66.5045 24.2899 67.0352 24.872 67.0352 25.8775V26.195H64.9122V26.1421ZM66.0799 25.5071C66.0268 25.1366 65.8676 24.925 65.5491 24.925C65.2306 24.925 65.0183 25.1366 64.9122 25.5071H66.0799ZM68.2029 24.2899C68.3091 24.6604 68.4152 25.1896 68.5745 25.56L68.7868 26.195L68.8398 26.8301L68.8929 26.195L69.0522 25.7188L69.5298 24.2899H70.5383C70.1668 25.4012 69.9014 26.1421 69.4768 27.0417L69.2114 27.6239L68.946 28.1531C68.8398 28.3647 68.7337 28.5764 68.5745 28.9998H67.6191L67.7783 28.5764L68.0437 27.9943C68.0968 27.8355 68.1499 27.7297 68.2029 27.6768C68.2029 27.6768 68.256 27.5709 68.256 27.518C67.7783 26.5126 67.4068 25.4012 67.0883 24.3428H68.2029V24.2899ZM73.776 25.8246C73.776 26.8301 73.139 27.518 72.1306 27.518C71.1221 27.518 70.5383 26.883 70.5383 25.8775C70.5383 24.872 71.1752 24.237 72.1837 24.237C73.1921 24.237 73.776 24.8191 73.776 25.8246ZM71.5998 25.8775C71.5998 26.4067 71.8121 26.7242 72.1837 26.7242C72.5552 26.7242 72.7675 26.4067 72.7675 25.8775C72.7675 25.3483 72.5552 25.0308 72.1837 25.0308C71.8121 24.9779 71.5998 25.2954 71.5998 25.8775ZM74.4129 24.4487C75.0498 24.2899 75.4744 24.237 75.9521 24.237C76.4829 24.237 76.8013 24.3428 77.0667 24.5545C77.279 24.7662 77.3321 24.9779 77.3321 25.5071V27.4122H76.3236V25.5071C76.3236 25.1366 76.2175 25.0308 75.846 25.0308C75.6867 25.0308 75.5806 25.0308 75.4213 25.0837V27.4122H74.4129V24.4487ZM79.9859 22.6494H80.9944V27.3063C80.4636 27.4122 80.1452 27.4651 79.7205 27.4651C78.4998 27.4651 77.8629 26.9359 77.8629 25.8775C77.8629 24.872 78.4998 24.237 79.5613 24.237C79.7205 24.237 79.8267 24.237 79.9859 24.2899V22.6494ZM79.9859 25.0837C79.8798 25.0308 79.7736 25.0308 79.6675 25.0308C79.1367 25.0308 78.8713 25.3483 78.8713 25.8775C78.8713 26.4067 79.1367 26.6713 79.6675 26.6713C79.7736 26.6713 79.8267 26.6713 80.039 26.6184L79.9859 25.0837ZM86.939 27.2005C86.4613 27.4122 86.0367 27.4651 85.5059 27.4651C83.9667 27.4651 82.9582 26.5655 82.9582 25.1896C82.9582 23.7607 84.0197 22.8082 85.559 22.8082C86.0367 22.8082 86.4082 22.8611 86.8859 23.0728V24.0782C86.4082 23.8136 86.0897 23.7078 85.6651 23.7078C84.6567 23.7078 84.0728 24.237 84.0728 25.1366C84.0728 25.9834 84.6567 26.5126 85.612 26.5126C86.0897 26.5126 86.4082 26.4067 86.8859 26.1421V27.2005H86.939ZM87.682 22.6494H88.6905V24.3958C89.0089 24.2899 89.1682 24.237 89.4336 24.237C89.8582 24.237 90.1235 24.3428 90.3359 24.5545C90.4951 24.7133 90.6012 24.925 90.6012 25.3483V27.4651H89.5928V25.56C89.5928 25.2425 89.4336 25.0837 89.1151 25.0837C88.9559 25.0837 88.7966 25.1366 88.6374 25.1896V27.4651H87.629L87.682 22.6494ZM92.1405 26.1421C92.1935 26.5655 92.4589 26.7772 92.9897 26.7772C93.3612 26.7772 93.6797 26.6713 94.0512 26.4596V27.2005C93.6266 27.4122 93.3081 27.518 92.8835 27.518C91.822 27.518 91.2382 26.9359 91.2382 25.9304C91.2382 24.925 91.8751 24.2899 92.8305 24.2899C93.7328 24.2899 94.2635 24.872 94.2635 25.8775V26.195H92.1405V26.1421ZM93.2551 25.5071C93.202 25.1366 93.0428 24.925 92.7243 24.925C92.4058 24.925 92.1935 25.1366 92.0874 25.5071H93.2551ZM94.7943 24.4487C95.3781 24.2899 95.7497 24.237 96.1743 24.237C96.5989 24.237 96.8112 24.2899 97.1297 24.4487C97.5543 24.2899 97.8197 24.237 98.2443 24.237C98.6689 24.237 98.9873 24.3428 99.2527 24.5545C99.465 24.7662 99.5181 24.9779 99.5181 25.4542V27.4651H98.5097V25.5071C98.5097 25.1896 98.3504 25.0837 98.085 25.0837C97.9258 25.0837 97.8197 25.0837 97.6604 25.1896C97.7135 25.2954 97.7135 25.3483 97.7135 25.5071V27.4651H96.705V25.5071C96.705 25.1896 96.5458 25.0308 96.2274 25.0308C96.0681 25.0308 95.962 25.0308 95.8027 25.0837V27.4122H94.7943V24.4487ZM100.261 22.8082H101.27V23.8136H100.261V22.8082ZM100.261 24.2899H101.27V27.4122H100.261V24.2899ZM101.907 26.5126C102.278 26.7242 102.543 26.7772 102.862 26.7772C103.127 26.7772 103.287 26.7242 103.287 26.5655C103.287 26.4596 103.233 26.4067 103.127 26.3538L102.756 26.195C102.172 25.9304 101.96 25.6658 101.96 25.2425C101.96 24.6074 102.437 24.237 103.287 24.237C103.605 24.237 103.817 24.2899 104.189 24.3958V25.1896C103.87 25.0308 103.658 24.9779 103.393 24.9779C103.127 24.9779 102.968 25.0308 102.968 25.1896C102.968 25.2954 103.021 25.3483 103.127 25.4012L103.499 25.56C104.136 25.8775 104.295 26.0363 104.295 26.5126C104.295 27.2005 103.87 27.518 102.968 27.518C102.597 27.518 102.331 27.4651 101.96 27.3063V26.5126H101.907ZM104.507 24.3428H105.038V23.4961H105.94V24.3428H106.63V25.0837H105.94V26.1421C105.94 26.5655 106.047 26.6713 106.365 26.6713H106.577V27.4122C106.365 27.4651 106.206 27.4651 106.047 27.4651C105.622 27.4651 105.303 27.3593 105.144 27.1476C104.985 26.9888 104.985 26.8301 104.985 26.3009V25.1366H104.454V24.3428H104.507ZM107.214 24.5545C107.745 24.3428 108.223 24.237 108.7 24.237C108.966 24.237 109.125 24.237 109.39 24.3428V25.1896C109.178 25.1366 109.019 25.0837 108.807 25.0837C108.594 25.0837 108.435 25.1366 108.17 25.1896V27.4651H107.214V24.5545ZM110.717 24.2899C110.823 24.6604 110.93 25.1896 111.089 25.56L111.301 26.195L111.354 26.8301L111.407 26.195L111.566 25.7188L112.044 24.2899H113.053C112.681 25.4012 112.416 26.1421 111.991 27.0417L111.726 27.6239L111.46 28.1531C111.354 28.3647 111.248 28.5764 111.089 28.9998H110.133L110.293 28.5764L110.558 27.9943C110.611 27.8355 110.664 27.7297 110.717 27.6768C110.717 27.6768 110.77 27.5709 110.77 27.518C110.293 26.5126 109.921 25.4012 109.603 24.3428H110.717V24.2899Z" fill="#0A0A0D"/>
<path d="M112.469 19.4215H110.399C110.187 19.4215 110.028 19.2627 110.028 19.051C109.975 17.781 109.497 16.6167 108.754 15.6642C108.648 15.5054 108.488 15.3467 108.329 15.1879C107.586 14.3412 106.418 13.812 105.198 13.812H103.871V18.9981C103.871 19.2098 103.712 19.4215 103.446 19.4215H101.323C101.111 19.4215 100.899 19.2627 100.899 18.9981V6.72074C100.899 6.50906 101.058 6.29739 101.323 6.29739H103.446C103.658 6.29739 103.871 6.45614 103.871 6.72074V10.8485H105.198C107.533 10.8485 109.391 8.99629 109.444 6.66782C109.444 6.45615 109.603 6.29739 109.815 6.29739H111.992C112.204 6.29739 112.363 6.45615 112.416 6.66782C112.363 8.94337 111.248 11.0072 109.55 12.2773C110.028 12.6478 110.399 13.0182 110.771 13.4415C112.045 14.9233 112.841 16.8284 112.947 18.9452C112.947 19.1569 112.788 19.3156 112.575 19.3686L112.469 19.4215ZM95.2193 18.9981V6.72074C95.2193 6.50906 95.3785 6.29739 95.6439 6.29739H97.767C97.9793 6.29739 98.1916 6.45614 98.1916 6.72074V18.9981C98.1916 19.2098 98.0324 19.4215 97.767 19.4215H95.6439C95.3785 19.4215 95.2193 19.2098 95.2193 18.9981ZM89.3809 9.36673C88.2663 8.94337 87.0455 8.67877 85.7717 8.67877C84.4978 8.67877 83.2771 8.89045 82.1625 9.36673V18.9981C82.1625 19.2098 82.0032 19.4215 81.7379 19.4215H79.6148C79.4025 19.4215 79.1902 19.2627 79.1902 18.9981V7.77914C79.1902 7.6733 79.2433 7.51454 79.3494 7.46162C81.2602 6.40323 83.4363 5.76819 85.7186 5.76819C88.054 5.76819 90.2301 6.40323 92.0878 7.46162C92.1939 7.51454 92.247 7.6733 92.247 7.77914V18.9981C92.247 19.2098 92.0878 19.4215 91.8224 19.4215H89.6993C89.487 19.4215 89.2747 19.2627 89.2747 18.9981V9.36673H89.3809Z" fill="#0A0A0D"/>
<path d="M73.4046 9.36661C72.29 8.94325 71.0692 8.67865 69.7954 8.67865C68.5215 8.67865 67.3008 8.89033 66.1862 9.36661V16.2991C67.3008 16.7224 68.5215 16.987 69.7954 16.987C71.0692 16.987 72.29 16.7754 73.4046 16.2991V9.36661ZM69.7954 19.9506C67.5131 19.9506 65.3369 19.3684 63.4262 18.31C63.32 18.2571 63.2669 18.1513 63.2139 17.9925V7.77902C63.2139 7.62026 63.32 7.51442 63.4262 7.4615C65.2839 6.4031 67.46 5.76807 69.7954 5.76807C72.1307 5.76807 74.3069 6.35018 76.1645 7.4615C76.2707 7.51442 76.3238 7.67318 76.3769 7.77902V17.9925C76.3769 18.1513 76.2707 18.2571 76.1645 18.31C74.2538 19.3684 72.1307 19.9506 69.7954 19.9506Z" fill="#0A0A0D"/>
<path d="M58.3309 6.29736H61.197C61.4093 6.29736 61.5686 6.50904 61.5686 6.72072V6.87948L56.8447 19.1569C56.7917 19.3156 56.6324 19.4215 56.4732 19.4215H52.864C52.7048 19.4215 52.5455 19.3156 52.4925 19.2098L47.981 6.87948V6.77364C47.981 6.56196 48.1402 6.4032 48.3525 6.35028H51.2186C51.3779 6.35028 51.5371 6.45612 51.5902 6.61488L54.6686 16.4579L57.9594 6.56196C58.0124 6.45612 58.1717 6.35028 58.3309 6.29736ZM46.3887 19.4215H35.9857C35.8264 19.4215 35.7203 19.3156 35.6141 19.2098C34.5526 17.3576 33.9688 15.1879 33.9688 12.8594C33.9688 10.5309 34.5526 8.41415 35.6141 6.50904C35.6672 6.4032 35.8264 6.29736 35.9857 6.29736H45.8048C46.0171 6.29736 46.1233 6.45612 46.1764 6.6678V8.89043C46.1764 9.10211 46.0171 9.26087 45.8048 9.26087H37.578C37.3126 9.94882 37.1003 10.6368 36.9941 11.3777H45.2741C45.4864 11.3777 45.6456 11.5364 45.6456 11.7481V13.9178C45.6456 14.1295 45.4864 14.2882 45.2741 14.3412H37.0472C37.1533 15.082 37.3657 15.77 37.631 16.4579H46.4417C46.654 16.4579 46.8133 16.6167 46.8133 16.8284V18.9981C46.7602 19.2098 46.601 19.4215 46.3887 19.4215Z" fill="#0A0A0D"/>
<path d="M12.8976 2.91058C7.37764 2.91058 2.91921 7.35584 2.91921 12.8595C2.91921 18.3631 7.37764 22.8084 12.8976 22.8084C15.923 22.8084 18.5768 21.4854 20.4345 19.3686H9.97839C9.87224 19.3686 9.71301 19.3157 9.65993 19.3157C7.32457 18.1515 5.67919 15.7172 5.67919 12.8595C5.67919 10.0547 7.27149 7.62044 9.65993 6.40329C9.76609 6.35037 9.87224 6.35037 9.97839 6.35037H15.8168C15.976 6.35037 16.0822 6.40329 16.1353 6.40329C17.1968 6.93248 18.046 7.67336 18.736 8.62591C18.9483 8.89051 18.736 9.26095 18.4176 9.26095H10.5622C9.39455 10.0018 8.5984 11.3248 8.5984 12.8595C8.5984 14.3412 9.39455 15.6642 10.5622 16.458H24.7337C24.9991 16.458 25.2114 16.7226 25.1052 16.9872C23.4068 22.0675 18.5768 25.719 12.8976 25.719C5.78534 25.719 0 19.9507 0 12.8595C0 5.76825 5.78534 0 12.8976 0C20.0099 0 25.7952 5.76825 25.7952 12.8595C25.7952 13.2299 25.7952 13.6004 25.7421 13.9708C25.7421 14.1825 25.5298 14.3412 25.3706 14.3412H11.5707C11.4115 14.3412 11.2522 14.2354 11.1992 14.0766C11.0399 13.7062 10.9338 13.2828 10.9338 12.8595C10.9338 12.4361 11.0399 12.0128 11.1992 11.6423C11.2522 11.4836 11.4115 11.3777 11.5707 11.3777H22.7698C22.0268 6.61496 17.8868 2.91058 12.8976 2.91058Z" fill="#0A0A0D"/>
</g>
<defs>
<clipPath id="clip0_1_133">
<rect width="113" height="29" fill="white"/>
</clipPath>
</defs>
</svg>
