<svg width="39" height="30" viewBox="0 0 39 30" fill="none" xmlns="http://www.w3.org/2000/svg">
<g clip-path="url(#clip0_1_63)">
<path d="M10.2204 0H14.4566V30H10.2204V0ZM28.3803 0V3.61975H31.6646V30H35.769V3.61975H39V0H28.3803ZM0 30H4.10451V16.3899H7.60018V12.8197H4.10451V3.61975H8.66475V0H0V30ZM28.9245 28.0348C28.9253 28.6922 28.9257 29.3473 28.9256 30H25.0864C25.083 28.8651 25.0805 27.7245 25.0788 26.5784C25.0756 25.434 25.0703 24.2877 25.0581 23.1452C25.0338 20.8626 24.9823 18.5888 24.8649 16.3899H20.3494V30H16.6629V0H25.3248C25.8493 1.03204 26.2942 2.10389 26.6554 3.20587C27.0291 4.34473 27.3384 5.50438 27.5817 6.67913C27.8334 7.87343 28.0334 9.10491 28.1943 10.3579C28.3551 11.6106 28.4774 12.8922 28.5719 14.1853C28.6664 15.4777 28.7337 16.7925 28.7827 18.1086C28.8316 19.4233 28.8628 20.7568 28.8832 22.0802C28.9037 23.4004 28.9139 24.7416 28.9194 26.0568C28.9221 26.7178 28.9238 27.3771 28.9245 28.0348ZM24.6033 12.8197C24.2734 9.38954 23.7075 6.21471 22.7277 3.61975H20.3494V12.8197H24.6033Z" fill="#0A0A0D"/>
</g>
<defs>
<clipPath id="clip0_1_63">
<rect width="39" height="30" fill="white"/>
</clipPath>
</defs>
</svg>
