<svg width="67" height="30" viewBox="0 0 67 30" fill="none" xmlns="http://www.w3.org/2000/svg">
<g clip-path="url(#clip0_1_140)">
<path d="M33.5 0.29248C15.2279 0.29248 0 5.99998 0 14.565C0 23.13 15.2279 28.815 33.5 28.815C37.9609 28.8379 42.4159 28.4817 46.8199 27.75C46.4578 27.1317 46.2641 26.4245 46.2591 25.7025C46.2591 23.025 48.9755 20.8425 52.311 20.8425C55.1221 20.8425 57.4889 22.38 58.1371 24.465C63.6354 21.9975 67 18.6 67 14.565C67 5.99998 51.823 0.29248 33.5 0.29248Z" fill="#0A0A0D"/>
<path d="M23.6615 14.7527C24.0705 14.6145 24.4263 14.3461 24.6776 13.9862C24.9289 13.6263 25.0627 13.1935 25.0598 12.7502C25.0598 12.1952 24.8457 11.663 24.4647 11.2706C24.0836 10.8782 23.5668 10.6577 23.0279 10.6577H20.1149C20.0722 10.6577 20.0299 10.6665 19.9906 10.6835C19.9512 10.7006 19.9156 10.7256 19.8857 10.757C19.8559 10.7884 19.8324 10.8257 19.8167 10.8666C19.8011 10.9075 19.7935 10.9513 19.7945 10.9952V17.2502C19.7945 17.2936 19.8028 17.3365 19.8189 17.3765C19.835 17.4165 19.8586 17.4529 19.8883 17.4836C19.9181 17.5142 19.9534 17.5385 19.9923 17.5551C20.0312 17.5717 20.0728 17.5802 20.1149 17.5802H21.0616C21.1466 17.5802 21.2281 17.5454 21.2882 17.4836C21.3483 17.4217 21.3821 17.3377 21.3821 17.2502V14.8577H22.1103L23.4649 17.1077C23.549 17.2445 23.665 17.3574 23.8025 17.436C23.9399 17.5146 24.0942 17.5565 24.2514 17.5577H25.2637C25.2935 17.5581 25.3227 17.5499 25.3482 17.5341C25.3737 17.5183 25.3944 17.4954 25.408 17.4682C25.4216 17.4409 25.4276 17.4103 25.4253 17.3798C25.4229 17.3492 25.4124 17.3199 25.3948 17.2952L23.6615 14.7527ZM21.3894 12.0527H22.7949C22.9039 12.0179 23.0193 12.0099 23.1319 12.0294C23.2444 12.0489 23.3509 12.0954 23.4428 12.1651C23.5347 12.2348 23.6094 12.3258 23.6609 12.4306C23.7124 12.5355 23.7392 12.6514 23.7392 12.769C23.7392 12.8865 23.7124 13.0024 23.6609 13.1073C23.6094 13.2122 23.5347 13.3031 23.4428 13.3728C23.3509 13.4425 23.2444 13.489 23.1319 13.5086C23.0193 13.5281 22.9039 13.5201 22.7949 13.4852H21.3894V12.0527ZM39.1298 11.0027V17.2502C39.1298 17.3377 39.096 17.4217 39.0359 17.4836C38.9759 17.5454 38.8943 17.5802 38.8094 17.5802H37.8699C37.7849 17.5802 37.7034 17.5454 37.6433 17.4836C37.5832 17.4217 37.5495 17.3377 37.5495 17.2502V12.6827H37.4475L36.0857 15.9752C36.0338 16.0984 35.9485 16.2036 35.84 16.2781C35.7314 16.3526 35.6043 16.3933 35.4739 16.3952H34.9569C34.8265 16.3933 34.6994 16.3526 34.5908 16.2781C34.4823 16.2036 34.397 16.0984 34.3451 15.9752L32.9833 12.6827H32.8813V17.2502C32.8813 17.3377 32.8476 17.4217 32.7875 17.4836C32.7274 17.5454 32.6459 17.5802 32.5609 17.5802H31.6141C31.5292 17.5802 31.4477 17.5454 31.3876 17.4836C31.3275 17.4217 31.2937 17.3377 31.2937 17.2502V11.0027C31.2937 10.9152 31.3275 10.8313 31.3876 10.7694C31.4477 10.7075 31.5292 10.6727 31.6141 10.6727H32.9104C33.0762 10.6711 33.2386 10.721 33.3764 10.816C33.5141 10.9111 33.6208 11.0467 33.6824 11.2052L35.2045 15.0827L36.661 11.2127C36.7223 11.0534 36.8287 10.9167 36.9663 10.8204C37.104 10.7242 37.2665 10.6727 37.4329 10.6727H38.7584C38.8045 10.6651 38.8517 10.6679 38.8967 10.681C38.9417 10.6941 38.9833 10.7172 39.0187 10.7486C39.0541 10.7801 39.0824 10.8191 39.1016 10.863C39.1208 10.9069 39.1304 10.9546 39.1298 11.0027ZM53.127 11.0027V17.2502C53.127 17.3377 53.0932 17.4217 53.0331 17.4836C52.973 17.5454 52.8915 17.5802 52.8065 17.5802H51.8015C51.6254 17.5809 51.4521 17.5342 51.2988 17.4447C51.1456 17.3553 51.0176 17.2262 50.9276 17.0702L48.437 12.7502H48.3714V17.2502C48.3714 17.3377 48.3377 17.4217 48.2776 17.4836C48.2175 17.5454 48.136 17.5802 48.051 17.5802H47.097C47.0133 17.5783 46.9336 17.5426 46.8751 17.4809C46.8166 17.4193 46.7838 17.3365 46.7838 17.2502V11.0027C46.7838 10.9165 46.8166 10.8337 46.8751 10.772C46.9336 10.7103 47.0133 10.6747 47.097 10.6727H48.1165C48.2906 10.6733 48.4617 10.7198 48.6134 10.8078C48.7651 10.8957 48.8924 11.0222 48.9832 11.1752L51.4665 15.3902H51.5321V11.0027C51.5321 10.9152 51.5658 10.8313 51.6259 10.7694C51.686 10.7075 51.7675 10.6727 51.8525 10.6727H52.8065C52.8516 10.6674 52.8972 10.672 52.9404 10.6862C52.9836 10.7004 53.0233 10.7239 53.057 10.755C53.0908 10.7862 53.1177 10.8244 53.136 10.8671C53.1543 10.9098 53.1637 10.956 53.1634 11.0027H53.127ZM17.1072 11.1677C17.0581 11.0275 16.9695 10.9055 16.8528 10.8173C16.736 10.7291 16.5964 10.6788 16.4518 10.6727H15.3375C15.1929 10.6788 15.0532 10.7291 14.9365 10.8173C14.8198 10.9055 14.7312 11.0275 14.6821 11.1677L12.8104 17.2502C12.7991 17.287 12.7962 17.3261 12.8021 17.3643C12.8081 17.4024 12.8226 17.4386 12.8445 17.47C12.8665 17.5013 12.8952 17.5269 12.9285 17.5448C12.9618 17.5626 12.9987 17.5722 13.0362 17.5727H13.8373C14.0027 17.5781 14.1649 17.5253 14.2973 17.4231C14.4297 17.3208 14.5243 17.1752 14.5656 17.0102L14.784 16.2602H17.0635L17.282 17.0102C17.3233 17.1752 17.4179 17.3208 17.5502 17.4231C17.6826 17.5253 17.8448 17.5781 18.0102 17.5727H18.7822C18.8197 17.5722 18.8566 17.5626 18.8899 17.5448C18.9232 17.5269 18.9519 17.5013 18.9739 17.47C18.9958 17.4386 19.0103 17.4024 19.0162 17.3643C19.0222 17.3261 19.0193 17.287 19.0079 17.2502L17.1072 11.1677ZM15.1336 14.8577L15.8619 12.2102H15.8983L16.6265 14.8577H15.1336ZM44.1548 11.1677C44.1057 11.0275 44.0171 10.9055 43.9004 10.8173C43.7836 10.7291 43.644 10.6788 43.4994 10.6727H42.3924C42.2461 10.6723 42.1036 10.7201 41.9856 10.8092C41.8677 10.8983 41.7805 11.0239 41.737 11.1677L39.8581 17.2502C39.8465 17.2876 39.8437 17.3274 39.85 17.3661C39.8563 17.4049 39.8715 17.4415 39.8943 17.473C39.917 17.5045 39.9468 17.53 39.981 17.5473C40.0152 17.5647 40.053 17.5734 40.0911 17.5727H40.8631C41.027 17.5717 41.1862 17.5165 41.3173 17.4152C41.4484 17.314 41.5445 17.172 41.5913 17.0102L41.8025 16.2602H44.0893L44.3004 17.0102C44.3473 17.172 44.4433 17.314 44.5744 17.4152C44.7056 17.5165 44.8648 17.5717 45.0287 17.5727H45.8007C45.8382 17.5722 45.8751 17.5626 45.9084 17.5448C45.9416 17.5269 45.9704 17.5013 45.9924 17.47C46.0143 17.4386 46.0288 17.4024 46.0347 17.3643C46.0406 17.3261 46.0378 17.287 46.0264 17.2502L44.1548 11.1677ZM42.1885 14.8577L42.9168 12.2102L43.645 14.8577H42.1885ZM30.3834 11.0027V11.7977C30.3815 11.8839 30.3469 11.966 30.287 12.0262C30.2271 12.0865 30.1467 12.1202 30.0629 12.1202H28.8249V17.2502C28.8249 17.3377 28.7911 17.4217 28.7311 17.4836C28.671 17.5454 28.5895 17.5802 28.5045 17.5802H27.5577C27.5157 17.5802 27.474 17.5717 27.4351 17.5551C27.3962 17.5385 27.3609 17.5142 27.3311 17.4836C27.3014 17.4529 27.2778 17.4165 27.2617 17.3765C27.2456 17.3365 27.2373 17.2936 27.2373 17.2502V12.1502H25.9993C25.9155 12.1502 25.8351 12.1165 25.7752 12.0562C25.7153 11.996 25.6807 11.9139 25.6788 11.8277V11.0027C25.6788 10.9152 25.7126 10.8313 25.7727 10.7694C25.8328 10.7075 25.9143 10.6727 25.9993 10.6727H30.0629C30.1479 10.6727 30.2294 10.7075 30.2895 10.7694C30.3496 10.8313 30.3834 10.9152 30.3834 11.0027ZM11.9948 11.0027V17.2502C11.9948 17.3377 11.961 17.4217 11.9009 17.4836C11.8409 17.5454 11.7593 17.5802 11.6744 17.5802H10.7203C10.6354 17.5802 10.5539 17.5454 10.4938 17.4836C10.4337 17.4217 10.3999 17.3377 10.3999 17.2502V14.8502H8.14958V17.2502C8.14958 17.3377 8.11582 17.4217 8.05573 17.4836C7.99563 17.5454 7.91413 17.5802 7.82914 17.5802H6.87512C6.79014 17.5802 6.70863 17.5454 6.64854 17.4836C6.58845 17.4217 6.55469 17.3377 6.55469 17.2502V11.0027C6.55467 10.9165 6.58742 10.8337 6.64595 10.772C6.70448 10.7103 6.78412 10.6747 6.86784 10.6727H7.82186C7.90685 10.6727 7.98835 10.7075 8.04844 10.7694C8.10854 10.8313 8.1423 10.9152 8.1423 11.0027V13.5002H10.3926V11.0027C10.3926 10.9152 10.4264 10.8313 10.4865 10.7694C10.5466 10.7075 10.6281 10.6727 10.7131 10.6727H11.6525C11.6964 10.6696 11.7404 10.6759 11.7819 10.6911C11.8233 10.7063 11.8612 10.7301 11.8934 10.761C11.9255 10.792 11.951 10.8294 11.9685 10.871C11.9859 10.9126 11.9949 10.9574 11.9948 11.0027ZM60.4387 11.0027V17.2502C60.4387 17.3365 60.406 17.4193 60.3474 17.4809C60.2889 17.5426 60.2093 17.5783 60.1256 17.5802H59.1133C58.9374 17.5794 58.7647 17.5321 58.6116 17.4428C58.4586 17.3535 58.3304 17.2252 58.2394 17.0702L55.756 12.7502H55.6904V17.2502C55.6904 17.3377 55.6567 17.4217 55.5966 17.4836C55.5365 17.5454 55.455 17.5802 55.37 17.5802H54.416C54.331 17.5802 54.2495 17.5454 54.1894 17.4836C54.1293 17.4217 54.0956 17.3377 54.0956 17.2502V11.0027C54.0956 10.9152 54.1293 10.8313 54.1894 10.7694C54.2495 10.7075 54.331 10.6727 54.416 10.6727H55.4356C55.6097 10.6733 55.7807 10.7198 55.9324 10.8078C56.0841 10.8957 56.2114 11.0222 56.3022 11.1752L58.7856 15.3902H58.8511V11.0027C58.8511 10.9152 58.8849 10.8313 58.945 10.7694C59.005 10.7075 59.0866 10.6727 59.1715 10.6727H60.1256C60.2105 10.6727 60.292 10.7075 60.3521 10.7694C60.4122 10.8313 60.446 10.9152 60.446 11.0027H60.4387Z" fill="white"/>
<path d="M52.3105 29.7073C55.1943 29.7073 57.5321 27.9142 57.5321 25.7023C57.5321 23.4904 55.1943 21.6973 52.3105 21.6973C49.4267 21.6973 47.0889 23.4904 47.0889 25.7023C47.0889 27.9142 49.4267 29.7073 52.3105 29.7073Z" fill="#0A0A0D"/>
<path d="M54.8672 24.825H53.1631V23.25C53.1631 23.1744 53.1339 23.1019 53.082 23.0484C53.0301 22.995 52.9597 22.965 52.8863 22.965H51.7065C51.6344 22.9669 51.5659 22.9978 51.5156 23.051C51.4652 23.1043 51.4371 23.1757 51.4371 23.25V24.825H49.7621C49.7258 24.825 49.6898 24.8323 49.6562 24.8467C49.6226 24.861 49.5921 24.882 49.5664 24.9084C49.5407 24.9349 49.5203 24.9663 49.5064 25.0009C49.4925 25.0355 49.4854 25.0725 49.4854 25.11V26.295C49.4854 26.3706 49.5145 26.443 49.5664 26.4965C49.6183 26.5499 49.6887 26.58 49.7621 26.58H51.4662V28.155C51.4662 28.2286 51.4946 28.2991 51.5451 28.3512C51.5957 28.4032 51.6642 28.4325 51.7357 28.4325H52.8863C52.9223 28.4335 52.9581 28.427 52.9917 28.4135C53.0252 28.4 53.0558 28.3798 53.0816 28.3539C53.1074 28.328 53.1279 28.2971 53.1419 28.2629C53.1559 28.2288 53.1631 28.192 53.1631 28.155V26.58H54.8672C54.9032 26.58 54.9389 26.5726 54.972 26.5581C55.0052 26.5437 55.0352 26.5226 55.0604 26.4961C55.0855 26.4695 55.1052 26.438 55.1183 26.4035C55.1314 26.3689 55.1376 26.332 55.1367 26.295V25.11C55.1376 25.0729 55.1314 25.036 55.1183 25.0015C55.1052 24.9669 55.0855 24.9354 55.0604 24.9089C55.0352 24.8823 55.0052 24.8612 54.972 24.8468C54.9389 24.8324 54.9032 24.825 54.8672 24.825Z" fill="white"/>
</g>
<defs>
<clipPath id="clip0_1_140">
<rect width="67" height="30" fill="white"/>
</clipPath>
</defs>
</svg>
