<svg width="97" height="29" viewBox="0 0 97 29" fill="none" xmlns="http://www.w3.org/2000/svg">
<g clip-path="url(#clip0_1_86)">
<path d="M28.2229 28.1621H11.3572C5.03625 28.1621 0.822266 23.9599 0.822266 17.6565V0.837891H17.6782C23.9992 0.837891 28.2132 5.04013 28.2132 11.3435V28.1621H28.2229Z" fill="#0A0A0D"/>
<path d="M50.8006 3.96094C50.211 3.96094 49.8631 4.31751 49.8631 4.83797C49.8631 5.35844 50.211 5.71501 50.8006 5.71501C51.3902 5.71501 51.7382 5.35844 51.7382 4.83797C51.7382 4.31751 51.3902 3.96094 50.8006 3.96094ZM57.7306 4.58742V7.65225C57.344 7.18961 56.677 6.8042 55.7202 6.8042C53.9515 6.8042 52.5983 8.15343 52.5983 9.91722C52.5983 11.681 53.9611 13.0304 55.7202 13.0304C56.7157 13.0304 57.402 12.6159 57.7789 12.134L57.8174 12.9244H59.2963V4.58742H57.7306ZM67.5407 4.58742V12.9244H69.0967V4.58742H67.5407ZM70.3919 4.58742V12.934H71.8705L71.9092 12.1438C72.2862 12.6257 72.9725 13.04 73.968 13.04C75.7367 13.04 77.0897 11.6908 77.0897 9.92701C77.0897 8.16322 75.727 6.8138 73.968 6.8138C73.0111 6.8138 72.3442 7.1994 71.9576 7.66203V4.58742H70.3919ZM34.5439 5.04034V12.9244H36.1966V9.77264H40.0336V12.9244H41.6865V5.04034H40.0336V8.25953H36.1966V5.04034H34.5439ZM92.6022 6.8042C90.8335 6.8042 89.4805 8.15343 89.4805 9.91722C89.4805 11.681 90.8432 13.0304 92.6022 13.0304C93.559 13.0304 94.226 12.6448 94.6126 12.1822V12.5581C94.6126 13.5701 93.9553 14.2256 92.9405 14.2256C91.9256 14.2256 91.3554 13.9171 90.8721 13.4352L89.896 14.4088C90.4565 15.0256 91.4617 15.5171 92.9501 15.5171C94.8638 15.5171 96.1783 14.3219 96.1783 12.4039V6.91018H94.6996L94.6609 7.70044C94.284 7.21853 93.5977 6.8042 92.6022 6.8042ZM45.8521 6.8138C44.0931 6.8138 42.711 8.07647 42.711 9.927C42.711 11.7775 43.8708 13.04 45.9971 13.0496C47.3502 13.0496 48.1234 12.5678 48.6646 12.0762L47.6885 11.1028C47.2632 11.5558 46.8186 11.7583 46.0647 11.7583C45.0692 11.7583 44.5184 11.2281 44.3444 10.5727H48.9546C48.9739 10.2354 48.9738 10.1487 48.9738 9.92701C48.9738 8.07648 47.7465 6.8138 45.8521 6.8138ZM63.4136 6.8138C61.6545 6.8138 60.2724 8.07647 60.2724 9.927C60.2724 11.7775 61.4419 13.04 63.5585 13.0496C64.9117 13.0496 65.6848 12.5678 66.2261 12.0762L65.2499 11.1028C64.8247 11.5558 64.3802 11.7583 63.6263 11.7583C62.6308 11.7583 62.0798 11.2281 61.9058 10.5727H66.516C66.5354 10.2354 66.5355 10.1487 66.5355 9.92701C66.5355 8.07648 65.3079 6.8138 63.4136 6.8138ZM80.9365 6.8138C79.1774 6.8138 77.7953 8.07647 77.7953 9.927C77.7953 11.7775 78.9551 13.04 81.0815 13.0496C82.4346 13.0496 83.2078 12.5678 83.749 12.0762L82.7729 11.1028C82.3476 11.5558 81.9029 11.7583 81.149 11.7583C80.1535 11.7583 79.6027 11.2281 79.4288 10.5727H84.039C84.0583 10.2354 84.0582 10.1487 84.0582 9.92701C84.0582 8.07648 82.8308 6.8138 80.9365 6.8138ZM87.6537 6.92938C86.0687 6.92938 85.0538 7.94143 85.0538 9.52209V12.9244H86.6098V9.72445C86.6098 8.73172 87.0158 8.32692 88.0113 8.32692H89.0552V6.92938H87.6537ZM50.0178 6.94877V12.9244V12.934H51.5738V6.94877L50.0178 6.94877ZM45.9197 8.10535C46.8186 8.10535 47.3212 8.68364 47.4082 9.31012H44.2961C44.4507 8.69328 44.9339 8.10535 45.9197 8.10535ZM63.4813 8.10535C64.3802 8.10535 64.8826 8.68364 64.9696 9.31012H61.8575C62.0122 8.69328 62.4955 8.10535 63.4813 8.10535ZM81.0041 8.10535C81.9029 8.10535 82.4055 8.68364 82.4925 9.31012H79.3804C79.5351 8.69328 80.0182 8.10535 81.0041 8.10535ZM55.9618 8.11495C56.9863 8.11495 57.7789 8.915 57.7789 9.92701C57.7789 10.9583 56.9863 11.7389 55.9618 11.7389C54.9276 11.7389 54.1447 10.9679 54.1447 9.92701C54.1447 8.915 54.9373 8.11495 55.9618 8.11495ZM73.7264 8.11495C74.7605 8.11495 75.5433 8.915 75.5433 9.92701C75.5433 10.9583 74.7509 11.7389 73.7264 11.7389C72.7018 11.7389 71.9092 10.9679 71.9092 9.92701C71.9092 8.915 72.7018 8.11495 73.7264 8.11495ZM92.8342 8.11495C93.8587 8.11495 94.6513 8.915 94.6513 9.92701C94.6513 10.9583 93.8587 11.7389 92.8342 11.7389C91.8 11.7389 91.0171 10.9679 91.0171 9.92701C91.0171 8.915 91.8097 8.11495 92.8342 8.11495ZM70.2178 14.987C69.6283 14.987 69.2804 15.3436 69.2804 15.8641C69.2804 16.3845 69.6283 16.7508 70.2178 16.7411C70.8074 16.7411 71.1553 16.3845 71.1553 15.8641C71.1553 15.3436 70.8074 14.987 70.2178 14.987ZM80.0087 15.6231V23.9601H81.5647V15.6231H80.0087ZM34.5439 16.0664V23.9601H36.187V18.8423L38.3905 22.0421H39.1154L41.3192 18.8325V23.9505H42.9718V16.0664H41.4545L38.7579 20.0277L36.1 16.0664H34.5439ZM52.8497 16.3364V17.9651H51.4675V19.3626H52.8497V21.5312C52.8497 23.1312 53.6808 23.9601 55.2852 23.9601H56.5997V22.5626H55.5559C54.7924 22.5626 54.4058 22.177 54.4058 21.4156V19.3626H56.5997V17.9651H54.4058V16.3364H52.8497ZM47.1182 17.8495C45.3495 17.8495 43.9963 19.2086 43.9963 20.9627C43.9963 22.7169 45.3495 24.0662 47.1182 24.0565C48.1137 24.0565 48.8 23.642 49.177 23.1601L49.2155 23.9505H50.6943V17.9555H49.2155L49.177 18.7459C48.8 18.264 48.1137 17.8495 47.1182 17.8495ZM60.4077 17.8495C58.6487 17.8495 57.2666 19.1122 57.2666 20.9627C57.2666 22.8036 58.4361 24.0661 60.5527 24.0853C61.9058 24.0853 62.679 23.6035 63.2203 23.1119L62.2441 22.1385C61.8189 22.5915 61.3742 22.794 60.6203 22.794C59.6248 22.794 59.074 22.2638 58.9 21.6084H63.5102C63.5295 21.2711 63.5297 21.1844 63.5297 20.9627C63.5297 19.1122 62.3021 17.8495 60.4077 17.8495ZM75.147 17.8495C73.3783 17.8495 72.0251 19.2086 72.0251 20.9627C72.0251 22.7169 73.3783 24.0662 75.147 24.0565C76.1426 24.0565 76.8289 23.642 77.2058 23.1601L77.2443 23.9505H78.7231V17.9555H77.2443L77.2058 18.7459C76.8289 18.264 76.1426 17.8495 75.147 17.8495ZM85.3341 17.8591C83.778 17.8591 82.5699 18.5049 82.5699 19.6808C82.5699 20.8084 83.4881 21.2807 85.0345 21.5698C86.3587 21.8204 86.6969 21.9747 86.6969 22.3121C86.6969 22.6205 86.3585 22.8036 85.4983 22.8036C84.6671 22.8036 83.807 22.5337 83.3528 22.0807L82.3766 23.0541C82.9662 23.6421 83.923 24.0661 85.3824 24.0757C87.1705 24.0757 88.2433 23.4299 88.2433 22.2541C88.2433 21.0879 87.2477 20.6445 85.8463 20.365C84.3965 20.0759 84.1163 19.941 84.1163 19.623C84.1163 19.3145 84.5415 19.1315 85.305 19.1315C86.1459 19.1315 86.7934 19.4495 87.151 19.8061L88.1274 18.8325C87.5958 18.3024 86.6486 17.8591 85.3341 17.8591ZM67.1346 17.9651C65.5496 17.9651 64.5347 18.9771 64.5347 20.5578V23.9601H66.0909V20.7602C66.0909 19.7674 66.4968 19.3626 67.4924 19.3626H68.5361V17.9651H67.1346ZM69.435 17.9749V23.9601H70.991V17.9749H69.435ZM60.4753 19.1315C61.3742 19.1315 61.8768 19.7098 61.9638 20.3362H58.8517C59.0063 19.7194 59.4895 19.1315 60.4753 19.1315ZM47.3502 19.1507C48.3747 19.1507 49.1671 19.9507 49.1671 20.9627C49.1671 21.994 48.3747 22.7746 47.3502 22.7746C46.3257 22.7746 45.5331 21.994 45.5331 20.9627C45.5331 19.9507 46.3257 19.1507 47.3502 19.1507ZM75.379 19.1507C76.4035 19.1507 77.196 19.9507 77.196 20.9627C77.196 21.994 76.4035 22.7746 75.379 22.7746C74.3449 22.7746 73.5619 21.994 73.5619 20.9627C73.5619 19.9507 74.3545 19.1507 75.379 19.1507Z" fill="#0A0A0D"/>
<path d="M15.5713 10.293H17.6783C21.612 10.293 23.9993 12.6832 23.9993 16.5963V23.9503H21.8923C18.0166 23.9503 15.5713 21.4829 15.5713 17.6469V10.293Z" fill="white"/>
<path d="M5.03601 5.04016H13.464V23.9503H11.357C7.44262 23.9503 5.03601 21.5889 5.03601 17.6469V5.04016Z" fill="white"/>
</g>
<defs>
<clipPath id="clip0_1_86">
<rect width="97" height="29" fill="white"/>
</clipPath>
</defs>
</svg>
