<svg width="72" height="30" viewBox="0 0 72 30" fill="none" xmlns="http://www.w3.org/2000/svg">
<g clip-path="url(#clip0_1_93)">
<path d="M10.0976 7.98438H4.02832V10.038H10.0976V7.98438Z" fill="#0A0A0D"/>
<path d="M10.0976 11.9764H4.02832V14.03H10.0976V11.9764Z" fill="#0A0A0D"/>
<path d="M10.0976 15.9694H4.02832V18.0229H10.0976V15.9694Z" fill="#0A0A0D"/>
<path d="M10.0976 19.9609H4.02832V22.0144H10.0976V19.9609Z" fill="#0A0A0D"/>
<path d="M14.1249 23.9536H0.110352V26.0072H14.1249V23.9536Z" fill="#0A0A0D"/>
<path d="M14.1249 27.9463H0.110352V29.9998H14.1249V27.9463Z" fill="#0A0A0D"/>
<path d="M14.0145 3.99158H0V6.04507H14.0145V3.99158Z" fill="#0A0A0D"/>
<path d="M14.0145 0H0V2.05349H14.0145V0Z" fill="#0A0A0D"/>
<path d="M54.6769 10.0379L53.9597 7.98438H43.9172V10.0379H54.6769Z" fill="#0A0A0D"/>
<path d="M49.9865 14.03V12.8889L50.3732 14.03H61.4905L61.9032 12.8889V14.03H67.9724V11.9764H56.5801L55.9735 13.7172L55.3657 11.9764H43.9172V14.03H49.9865Z" fill="#0A0A0D"/>
<path d="M49.9865 15.9694H43.9172V18.0229H49.9865V15.9694Z" fill="#0A0A0D"/>
<path d="M60.1591 18.0208L60.8565 15.9692H51.0908L51.8222 18.0208H60.1591Z" fill="#0A0A0D"/>
<path d="M49.9865 19.9609H43.9172V22.0144H49.9865V19.9609Z" fill="#0A0A0D"/>
<path d="M49.9864 23.9536H40.0001V26.0072H49.9864V23.9536Z" fill="#0A0A0D"/>
<path d="M49.9864 27.9465H40.0001V30H49.9864V27.9465Z" fill="#0A0A0D"/>
<path d="M58.7672 22.0144L59.4844 19.9609H52.4688L53.1798 22.0144H58.7672Z" fill="#0A0A0D"/>
<path d="M57.4226 26.0072L58.1107 23.9536H53.8496L54.581 26.0072H57.4226Z" fill="#0A0A0D"/>
<path d="M55.9387 29.9948L56.0591 29.9979L56.7726 27.9463H55.2363L55.9387 29.9948Z" fill="#0A0A0D"/>
<path d="M39.8896 3.99353V6.04507H53.2976L52.6341 3.99353H39.8896Z" fill="#0A0A0D"/>
<path d="M39.8896 0V2.05349H51.9731L51.2559 0H39.8896Z" fill="#0A0A0D"/>
<path d="M67.9721 10.0379V7.98438H57.8771L57.1592 10.0379H67.9721Z" fill="#0A0A0D"/>
<path d="M67.9725 15.9694H61.9032V18.0229H67.9725V15.9694Z" fill="#0A0A0D"/>
<path d="M67.9725 19.9609H61.9032V22.0144H67.9725V19.9609Z" fill="#0A0A0D"/>
<path d="M72.0001 23.9536H61.9032V26.0072H72.0001V23.9536Z" fill="#0A0A0D"/>
<path d="M72.0001 27.9465H61.9032V30H72.0001V27.9465Z" fill="#0A0A0D"/>
<path d="M59.2016 3.99365L58.5381 6.04519H71.8898V3.99365H59.2016Z" fill="#0A0A0D"/>
<path d="M60.6353 0L59.918 2.05349H71.8891V0H60.6353Z" fill="#0A0A0D"/>
<path d="M26.0967 7.98438H20.0273V10.038H26.0967V7.98438Z" fill="#0A0A0D"/>
<path d="M35.5314 14.0301C35.5314 14.0301 36.8286 12.9759 37.2418 11.9766H20.0273V14.0301H35.5314Z" fill="#0A0A0D"/>
<path d="M20.0273 15.9692V18.0208H37.2417C36.8285 17.0247 35.5313 15.9692 35.5313 15.9692H20.0273Z" fill="#0A0A0D"/>
<path d="M26.0967 19.9609H20.0273V22.0144H26.0967V19.9609Z" fill="#0A0A0D"/>
<path d="M38.0702 10.038C38.0702 10.038 38.4563 8.95433 38.4563 7.98438H32.001V10.038H38.0702Z" fill="#0A0A0D"/>
<path d="M32 19.9609V22.0144H38.4553C38.4553 21.0458 38.0692 19.9609 38.0692 19.9609H32Z" fill="#0A0A0D"/>
<path d="M16.001 3.99365V6.04519H38.2893C38.2893 6.04519 38.028 4.46356 37.574 3.99365H16.001Z" fill="#0A0A0D"/>
<path d="M37.574 26.0072C38.028 25.5366 38.2893 23.9536 38.2893 23.9536H16.001V26.0072H37.574Z" fill="#0A0A0D"/>
<path d="M16.001 0V2.05349H35.9722C35.9722 2.05349 33.9306 0 31.2287 0H16.001Z" fill="#0A0A0D"/>
<path d="M31.2287 29.9979C33.9306 29.9979 35.9722 27.9463 35.9722 27.9463H16.001V29.9979H31.2287Z" fill="#0A0A0D"/>
</g>
<defs>
<clipPath id="clip0_1_93">
<rect width="72" height="30" fill="white"/>
</clipPath>
</defs>
</svg>
