<svg width="72" height="29" viewBox="0 0 72 29" fill="none" xmlns="http://www.w3.org/2000/svg">
<g clip-path="url(#clip0_1_155)">
<path fill-rule="evenodd" clip-rule="evenodd" d="M71.9897 29H0V0H72V29H71.9897Z" fill="#0A0A0D"/>
<path fill-rule="evenodd" clip-rule="evenodd" d="M1.44043 14.5002C1.44043 21.6288 15.9242 27.5502 36.0056 27.5502C56.087 27.5502 70.5604 21.6288 70.5604 14.5002C70.5604 7.37163 56.0767 1.4502 36.0056 1.4502C15.9345 1.4502 1.44043 7.37163 1.44043 14.5002Z" fill="#F8F8F8"/>
<path d="M33.4426 18.8535C33.6696 19.178 33.9173 19.4823 34.2062 19.7562H26.4149C26.4149 19.4519 26.1157 18.8332 25.7854 18.3463C25.4553 17.8594 23.6699 15.1919 23.6699 15.1919V18.8535C23.6699 19.1577 23.6699 19.4519 23.8247 19.7562H17.3338C17.4886 19.4519 17.4886 19.1577 17.4886 18.8535V10.1506C17.4886 9.84636 17.4886 9.55222 17.3338 9.24794H23.8247C23.6699 9.55222 23.6699 9.84636 23.6699 10.1506V13.9543C23.6699 13.9543 25.7442 11.2969 26.2189 10.6781C26.58 10.2115 27.0238 9.55215 27.0238 9.24794H33.7934C33.329 9.55222 32.8131 10.1 32.3899 10.6071C32.0184 11.0534 29.9133 13.579 29.9133 13.579C29.9133 13.579 33.0298 18.255 33.4426 18.8535ZM35.4858 10.1506V18.8535C35.4858 19.1577 35.4858 19.4519 35.331 19.7562H47.8589V16.835C47.5493 16.9871 47.25 16.9871 46.9405 16.9871H41.6672V15.6076H46.7341V13.3964H41.6672V12.0069H46.9405C47.2501 12.0069 47.5493 12.0069 47.8589 12.1489V9.23779H35.331C35.4858 9.55222 35.4858 9.84636 35.4858 10.1506ZM65.2163 18.8535C65.3195 19.1882 65.495 19.4925 65.722 19.7562H58.9317C58.9627 19.4519 58.8492 19.1577 58.7254 18.8535C58.7254 18.8535 58.6221 18.61 58.4777 18.2551L58.4158 18.1029H54.5047L54.4427 18.2651C54.4427 18.2651 54.3292 18.5593 54.226 18.8636C54.1228 19.1679 54.0093 19.462 54.0506 19.7663H48.6948C48.9136 19.5003 49.0784 19.1936 49.1798 18.8636L52.3892 10.1608C52.5027 9.85651 52.6162 9.56237 52.5749 9.25809H61.6251C61.5426 9.56237 61.7077 9.85651 61.8212 10.1608C62.0895 10.8201 64.9892 18.2651 65.2163 18.8535ZM57.5593 15.8815L56.6099 13.4471C56.5273 13.2241 56.4551 12.9908 56.4034 12.7574C56.3621 12.9925 56.3 13.2233 56.2177 13.4471C56.1867 13.5486 55.7842 14.6137 55.3198 15.8815H57.5593ZM14.2585 9.24794H7.20001C7.35481 9.55222 7.35481 9.84636 7.35481 10.1506V18.8535C7.35481 19.1577 7.35481 19.4519 7.20001 19.7562H14.2585C14.1037 19.4519 14.1037 19.1577 14.1037 18.8535V10.1506C14.1037 9.84636 14.1037 9.55222 14.2585 9.24794ZM63.0492 10.0797C63.0182 9.33922 63.6065 8.7205 64.3598 8.7002H64.4527C65.2163 8.69005 65.8458 9.27832 65.8561 10.0289V10.0797C65.8768 10.8404 65.2679 11.4794 64.4836 11.4997C63.7096 11.52 63.0595 10.9215 63.0389 10.1506C63.0492 10.1303 63.0492 10.1 63.0492 10.0797ZM63.3278 10.0797C63.3278 10.6882 63.8335 11.1853 64.4527 11.1853C65.0719 11.1853 65.5775 10.6882 65.5775 10.0797C65.5775 9.47109 65.0718 8.97404 64.4527 8.97404C63.8541 8.95374 63.3485 9.4102 63.3278 9.99846V10.0797ZM64.174 10.9012H63.9264V9.23779H64.5559C64.8552 9.24794 65.0822 9.48117 65.0822 9.77538C65.0822 9.97823 64.9686 10.1608 64.7829 10.2622L65.1441 10.9012H64.8655L64.5352 10.313H64.174V10.9012ZM64.174 10.0797H64.5146C64.6797 10.0898 64.8242 9.96801 64.8242 9.80575C64.8242 9.6435 64.7107 9.50147 64.5456 9.50147H64.174V10.0797Z" fill="#0A0A0D"/>
</g>
<defs>
<clipPath id="clip0_1_155">
<rect width="72" height="29" fill="white"/>
</clipPath>
</defs>
</svg>
