<svg width="35" height="26" viewBox="0 0 35 26" fill="none" xmlns="http://www.w3.org/2000/svg">
<path d="M27.8671 22.3402C28.5247 21.4114 29.2427 20.7529 30.4908 19.7478C31.2088 19.1656 31.8462 18.8883 32.4166 19.2418C32.9132 19.5537 33.148 20.136 33.148 20.6905C33.148 21.1064 32.9266 21.7233 32.3294 22.3125C31.2222 23.4076 29.3903 24.177 28.0886 24.0523C27.1961 23.9621 27.3102 23.1304 27.8671 22.3402ZM18.6877 20.1568C18.6877 19.1517 20.0029 17.502 21.2577 17.502C21.6603 17.502 21.7945 17.6892 21.7945 17.9664C21.7945 18.7982 19.8821 20.0459 19.0031 20.4202C18.7816 20.5241 18.6877 20.434 18.6877 20.1568ZM17.6879 10.8686C17.661 10.6814 17.7617 10.4665 18.0033 10.1269C20.4525 6.77899 25.2301 1.92695 27.2431 1.92695C27.8537 1.92695 28.1355 2.29432 28.1355 2.83498C28.1355 3.85391 27.4176 5.06692 26.7935 5.96801C25.1227 8.40096 20.9155 11.132 18.2582 11.132C17.8422 11.132 17.708 11.028 17.6879 10.8686ZM1.6574 22.153C1.6574 21.7995 1.77818 21.55 2.18079 21.55C2.65721 21.55 3.55637 21.855 4.2408 22.1946C4.67025 22.4442 4.60314 22.7214 4.36158 23.0125C3.93213 23.4284 3.33493 23.8582 2.82496 23.8582C2.20092 23.8582 1.6574 22.9779 1.6574 22.16V22.153ZM0.0134202 21.5223C0.0134202 23.4354 1.28163 25.8822 2.92561 25.8822C3.97239 25.8822 4.99904 25.092 5.93846 24.2186C6.83762 23.3868 6.97182 23.2759 7.7569 23.4908C9.09893 23.8651 10.3873 24.0592 11.575 24.0592C13.5343 24.0592 15.1716 23.6156 16.3257 23.1512C16.9095 22.9086 17.1041 22.8878 17.3121 23.165C17.8489 23.8859 18.6273 24.4127 19.607 24.4127C20.9624 24.4127 22.9688 23.7819 24.6262 22.867C24.7872 22.7769 24.908 22.7145 25.0153 22.7145C25.1361 22.7145 25.1831 22.7907 25.1831 22.8878C25.1831 23.0264 24.9617 23.4284 24.9617 24.0869C24.9617 25.4316 25.9011 26 27.2565 26C29.1555 26 31.0813 25.1544 32.7051 23.976C34.3625 22.7699 35 21.848 35 20.843C35 20.2746 34.8054 19.4844 33.8526 18.5417C33.2822 17.9872 32.732 17.6337 31.8395 17.6129C31.2558 17.599 30.672 17.8555 30.2694 18.0773C29.1756 18.7081 28.5113 19.2834 27.431 19.9557C26.3238 20.635 23.4317 22.5481 20.9222 22.5343C20.3384 22.5481 19.8754 22.3055 19.862 21.9312C19.8485 21.6678 20.2646 21.4391 20.6538 21.2034C23.1499 19.727 23.8142 18.6249 23.8142 17.502C23.8142 16.3167 22.848 15.8176 21.6334 15.8176C20.4994 15.8176 18.9427 16.3583 17.8556 17.5297C17.0907 18.3476 16.6008 19.4428 16.5606 20.739C16.5472 21.3559 16.4398 21.446 16.1714 21.647C15.5742 22.0976 13.6014 22.5412 12.2594 22.5412C10.4544 22.5412 8.79697 22.3402 8.79697 21.5569C8.79697 21.1688 9.09222 20.6905 9.66258 20.0459C11.3669 18.1605 12.6486 16.6564 14.6817 14.2303C15.4467 13.3085 15.7554 13.1698 16.4868 13.0312C17.5604 12.8302 18.5803 12.7678 20.7074 12.1232C22.9352 11.43 26.0084 9.68329 28.1087 6.94535C29.4507 5.20555 29.8735 3.49347 29.8735 2.33591C29.8668 0.790189 29.075 0 27.6457 0C24.5859 0 19.8351 4.94908 16.2385 9.48227C15.3393 10.6052 14.9233 11.0696 14.3462 11.028C13.9302 11.028 13.4202 10.8547 12.8096 10.522C11.6756 9.91896 10.6892 8.79606 10.0048 7.27113C9.76323 6.73047 9.51495 6.45321 9.12577 6.45321C8.44133 6.45321 8.12596 7.19488 8.12596 7.92962C8.12596 9.76646 10.3537 11.4162 12.6821 12.4489C13.3062 12.7401 13.1451 13.1144 12.6956 13.7729C11.2663 15.8107 9.52837 17.7238 8.11254 19.1517C6.81077 20.4756 6.27396 20.8291 5.62308 20.8291C4.79103 20.8291 3.5161 19.9835 2.30828 19.2695C2.03988 19.1032 1.77147 19.02 1.48965 19.02C0.503259 19.02 0 20.3578 0 21.5292L0.0134202 21.5223Z" fill="#0A0A0D"/>
</svg>
