<svg width="110" height="18" viewBox="0 0 110 18" fill="none" xmlns="http://www.w3.org/2000/svg">
<g clip-path="url(#clip0_1_73)">
<mask id="mask0_1_73" style="mask-type:luminance" maskUnits="userSpaceOnUse" x="0" y="0" width="110" height="18">
<path d="M109.656 0.359985H0.34375V17.64H109.656V0.359985Z" fill="white"/>
</mask>
<g mask="url(#mask0_1_73)">
<path d="M25.5367 0.614176L19.766 17.1329H25.1391L25.7023 15.2025H31.3332L31.8964 17.1329H37.268L31.4954 0.614176H25.5353H25.5367ZM26.9688 10.8424L28.5168 5.51865L30.0643 10.8429L26.9688 10.8424ZM81.8118 8.63924L86.6896 0.614176H81.0838L78.5964 5.32044L76.0623 0.614176H70.5024L75.3816 8.66257L70.1504 17.1329H75.7343L78.5964 12.0805L81.4591 17.1329H87.0423L81.8104 8.63924H81.8118ZM9.63531 8.53959L6.88916 0.614176H0.34375V17.1329H5.0819V7.20191L8.57656 17.1329H10.6888L14.184 7.20191V17.1329H18.9216V0.614176H12.3762L9.63146 8.53959H9.63531ZM64.4529 17.1329H69.1914V0.614176H64.4529V17.1329ZM63.1183 6.28507C63.1183 3.19042 61.1487 0.613159 57.4879 0.613159H49.1358V17.1319H53.8754V11.9311H55.5876L57.7452 17.1319H63.1416L60.3028 11.2871C61.5473 10.6442 63.1183 9.13323 63.1183 6.28507ZM56.761 7.57292H53.8764V4.9728H56.761C57.5596 4.9728 58.3099 5.36871 58.3099 6.26016C58.3099 7.1511 57.5596 7.57292 56.761 7.57292ZM34.9223 4.97331H39.1215V17.1329H43.8606V4.97483H48.0365V0.614176H34.9218L34.9223 4.97331Z" fill="#0A0A0D"/>
<path d="M95.2995 0.608512H88.7297L83.8574 8.63048L87.4324 14.4813H91.07V17.1317H95.2995V14.4813H97.1069V10.1202H95.2995V0.608512ZM91.07 10.1212H87.9027L91.07 4.91835V10.1212ZM104.634 13.045C108.201 10.022 109.54 8.18984 109.54 5.884C109.54 2.54032 107.098 0.359985 103.461 0.359985C101.115 0.359985 98.9563 1.30123 97.4527 3.13495L99.9869 6.13252C100.95 5.09216 102.053 4.496 103.391 4.496C104.376 4.496 105.056 5.11605 105.056 5.93431C105.056 7.2969 104.329 7.98961 98.0158 13.3662V17.1317H109.656V13.0435H104.634L104.634 13.045Z" fill="#0A0A0D"/>
</g>
</g>
<defs>
<clipPath id="clip0_1_73">
<rect width="110" height="18" fill="white"/>
</clipPath>
</defs>
</svg>
