<svg width="31" height="30" viewBox="0 0 31 30" fill="none" xmlns="http://www.w3.org/2000/svg">
<g clip-path="url(#clip0_1_84)">
<path fill-rule="evenodd" clip-rule="evenodd" d="M0 12.6204C0 8.9411 1.12136 5.91754 3.36408 3.54974C5.6081 1.18325 8.5598 0 12.2179 0C15.833 0 18.7613 1.18325 21.0053 3.54974C23.248 5.91623 24.3694 8.93979 24.3694 12.6204C24.3694 16.127 23.2259 19.1073 20.9403 21.5602C18.6533 24.0157 15.7459 25.2421 12.2179 25.2421C8.64566 25.2421 5.71737 24.0157 3.43042 21.5615C1.14347 19.1073 0 16.1257 0 12.6204ZM4.70399 12.6204C4.70399 15.0314 5.34662 17.1361 6.63189 18.9319C7.91586 20.7291 9.77872 21.627 12.2179 21.627C14.6128 21.627 16.4535 20.7291 17.7388 18.9306C19.0228 17.1348 19.6654 15.0301 19.6654 12.6217C19.6654 10.2107 18.9903 8.10602 17.6399 6.31021C16.2896 4.5144 14.4827 3.61387 12.2179 3.61387C9.95304 3.61387 8.13311 4.51309 6.76198 6.31021C5.38955 8.10733 4.70399 10.2107 4.70399 12.6204ZM30.9688 29.9764H23.9128V28.1348L24.7298 27.4123C25.2735 26.9293 25.6976 26.5249 26.0033 26.195C26.3077 25.8678 26.6785 25.4398 27.1143 24.9136C27.4961 24.4646 27.835 23.9804 28.1264 23.4673C28.3657 23.0288 28.4854 22.6126 28.4854 22.2186C28.4909 22.0136 28.4462 21.8104 28.3552 21.6268C28.2643 21.4433 28.1298 21.2851 27.9637 21.1662C27.6259 20.9076 27.2122 20.7695 26.7877 20.7736C26.0033 20.7736 25.1747 21.0576 24.3044 21.627L24.1743 19.8521C25.1483 19.3666 26.2224 19.1191 27.3094 19.1296C29.5313 19.1296 30.6423 20.1584 30.6423 22.2186C30.6423 22.9202 30.3808 23.6872 29.8578 24.5196C29.3349 25.3521 28.8991 25.9542 28.5517 26.3272C27.928 26.9817 27.2961 27.6284 26.6564 28.267H30.9688V29.9764Z" fill="#0A0A0D"/>
</g>
<defs>
<clipPath id="clip0_1_84">
<rect width="31" height="30" fill="white"/>
</clipPath>
</defs>
</svg>
