<svg width="31" height="30" viewBox="0 0 31 30" fill="none" xmlns="http://www.w3.org/2000/svg">
<path d="M0 0C8.47623 0.00569176 16.9525 0.000898754 25.4287 0.00239659C26.9646 0.000599187 28.5004 0.00569176 30.0363 0C30.0351 6.93825 30.0492 13.8765 30.0489 20.8148C30.0558 23.5905 30.0603 26.3666 30.0639 29.1424C20.0434 29.143 10.0229 29.143 0.00239659 29.1424C0.00269615 22.4025 0.00239659 15.6625 0.00239659 8.92258C0.000898754 5.94849 0.00569176 2.97409 0 0ZM12.1855 5.83226C12.1843 11.2697 12.187 16.7074 12.1843 22.1448C13.4086 22.5361 14.6371 22.9147 15.8593 23.3125C15.8578 18.9245 15.859 14.5365 15.8587 10.1487C15.8611 9.86532 15.8465 9.57893 15.8959 9.29854C15.9405 9.07746 16.034 8.83091 16.2494 8.72547C16.4016 8.64818 16.5798 8.68892 16.7284 8.75422C16.9204 8.83601 17.0924 8.98249 17.1708 9.17961C17.3847 9.63195 17.3311 10.1448 17.338 10.6301C17.338 12.2675 17.3374 13.9053 17.3383 15.5427C17.3419 15.6104 17.4363 15.6107 17.4833 15.6416C17.8922 15.8216 18.3275 15.9492 18.7732 15.9905C19.2732 16.0148 19.7992 15.9309 20.2183 15.6416C20.6548 15.3582 20.9616 14.9118 21.1494 14.4328C21.3899 13.7944 21.4588 13.1036 21.4445 12.4254C21.4187 11.6798 21.3474 10.924 21.0808 10.2212C20.8522 9.59181 20.4505 9.02683 19.9325 8.60294C19.5964 8.30368 19.2001 8.08499 18.8086 7.86781C17.891 7.41576 16.9138 7.10361 15.9366 6.80884C14.7003 6.43229 13.4505 6.09827 12.1855 5.83226ZM7.09792 17.2466C6.54193 17.4488 5.97844 17.631 5.43204 17.858C5.05788 18.0192 4.68342 18.1876 4.34611 18.4185C4.1466 18.5429 3.94439 18.6828 3.82426 18.891C3.74488 19.0446 3.67987 19.2178 3.71582 19.393C3.77274 19.7762 4.07081 20.067 4.38445 20.2657C4.65047 20.4244 4.93296 20.5583 5.23043 20.6476C5.65911 20.7923 6.09827 20.9043 6.53564 21.0194C7.23393 21.1617 7.9409 21.2716 8.65357 21.3007C9.26169 21.3144 9.87221 21.3138 10.477 21.2404C10.8078 21.2237 11.1307 21.1449 11.4587 21.105C11.4506 20.4655 11.4569 19.8256 11.4554 19.186C10.8883 19.4002 10.3153 19.5979 9.74609 19.8064C9.26289 19.9844 8.74764 20.0754 8.23238 20.0658C7.89807 20.0641 7.54697 20.0428 7.24561 19.884C7.15424 19.8331 7.05239 19.7378 7.07995 19.6228C7.09703 19.5128 7.19259 19.4428 7.27557 19.3801C7.43524 19.2795 7.61108 19.2058 7.78932 19.145C9.01036 18.7073 10.2314 18.2693 11.453 17.8332C11.4614 17.1211 11.4461 16.4081 11.4608 15.6961C10.0079 16.2164 8.55202 16.7296 7.09792 17.2466ZM20.3391 16.6319C19.0587 16.6945 17.7847 16.9309 16.5717 17.3479C16.5768 18.0842 16.5744 18.8209 16.5729 19.5575C17.7214 19.1507 18.8712 18.7472 20.0203 18.3415C20.399 18.21 20.774 18.0567 21.1739 18.0009C21.6206 17.9293 22.0789 17.9207 22.5256 17.9973C22.6921 18.0249 22.8536 18.0881 22.9908 18.1879C23.0678 18.2451 23.1091 18.3577 23.0597 18.4461C22.9423 18.6366 22.7293 18.7316 22.5262 18.8041C20.5431 19.5158 18.5566 20.2186 16.5738 20.9313C16.5735 21.6416 16.5759 22.3521 16.5729 23.0624C19.2492 22.0969 21.9286 21.1398 24.6043 20.1725C24.9892 20.0299 25.3571 19.8412 25.6995 19.615C25.8834 19.4745 26.082 19.3388 26.2052 19.1381C26.316 18.9688 26.3927 18.7588 26.346 18.5554C26.2905 18.264 26.0835 18.0291 25.8511 17.8577C25.5902 17.6558 25.2822 17.5303 24.9805 17.4042C24.6537 17.3029 24.3377 17.1687 24.0066 17.0804C23.483 16.9246 22.9465 16.8183 22.4061 16.7416C22.0559 16.7083 21.7069 16.6493 21.3546 16.6481C21.0164 16.6373 20.6767 16.611 20.3391 16.6319Z" fill="#0A0A0D"/>
</svg>
