<svg width="86" height="24" viewBox="0 0 86 24" fill="none" xmlns="http://www.w3.org/2000/svg">
<g clip-path="url(#clip0_1_80)">
<path d="M86 0H0V24H86V0Z" fill="#0A0A0D"/>
<path d="M5.73334 14.7383V13.8832H8.5957V14.9708C8.5764 16.2153 10.4577 16.3757 10.7013 15.225C10.7779 14.9515 10.7714 14.6597 10.6826 14.3903C10.1287 12.9323 6.34322 12.2723 5.86234 9.99975C5.76443 9.50053 5.75835 8.98635 5.84442 8.48475C6.13969 6.66 7.67192 6 9.57395 6C11.0883 6 13.1752 6.369 13.1752 8.8155V9.612H10.5164V8.913C10.5875 7.69275 8.74878 7.50891 8.54052 8.66025C8.51064 8.85393 8.51696 9.05184 8.55915 9.243C8.87234 10.5435 12.9172 11.2432 13.3608 13.593C13.4717 14.202 13.4778 14.8268 13.3787 15.438C13.12 17.301 11.5319 18 9.61194 18C7.59667 18 5.73334 17.2425 5.73334 14.7383ZM40.4143 14.7V13.845H43.2401V14.913C43.2014 16.1464 45.0741 16.3234 45.3242 15.1845C45.4008 14.9174 45.3945 14.6317 45.3062 14.3685C44.7702 12.9323 41.0213 12.2685 40.5418 9.99975C40.4438 9.50715 40.4374 8.99936 40.5232 8.50425C40.8206 6.699 42.355 6.039 44.2183 6.039C45.7147 6.039 47.7823 6.4275 47.7823 8.835V9.612H45.1421V8.9325C45.2169 7.72333 43.392 7.52671 43.2035 8.661C43.1733 8.85463 43.1794 9.05255 43.2215 9.24375C43.5167 10.5442 47.5215 11.2245 47.9679 13.554C48.0787 14.1564 48.0848 14.7748 47.9859 15.3795C47.7271 17.244 46.1576 17.9235 44.2592 17.9235C42.2618 17.925 40.4143 17.1653 40.4143 14.7ZM50.5343 15.1088C50.5086 14.8635 50.5026 14.6163 50.5164 14.37V6.33H53.2125V14.6212C53.209 14.764 53.215 14.9069 53.2304 15.0487C53.5099 16.135 54.9826 16.135 55.2622 15.0487C55.2782 14.9069 55.2844 14.764 55.2808 14.6212V6.33H57.9783V14.3685C57.9783 14.5822 57.9597 14.9902 57.9597 15.1072C57.7755 17.2072 56.2053 17.8823 54.2481 17.8823C52.2909 17.8823 50.7192 17.2035 50.5343 15.1072V15.1088ZM72.7324 14.9918C72.7049 14.7456 72.6925 14.4978 72.6951 14.25V9.534C72.6951 9.33975 72.713 8.99025 72.7316 8.79525C72.9717 6.699 74.5785 6.039 76.4805 6.039C78.3646 6.039 80.0259 6.699 80.2115 8.796C80.2336 9.04153 80.2396 9.28836 80.2294 9.53475V9.9H77.5333V9.282C77.5337 9.13863 77.5215 8.99552 77.4968 8.8545C77.1709 7.7657 75.6984 7.7657 75.3725 8.8545C75.3413 9.02748 75.3291 9.20362 75.336 9.3795V14.505C75.3329 14.6478 75.3391 14.7906 75.3546 14.9325C75.6356 16.0499 77.3283 16.0488 77.5699 14.9348C77.5947 14.7938 77.5881 14.65 77.5885 14.5073V12.8737H76.4991V11.2425H80.2667V14.25C80.2695 14.4966 80.2569 14.7431 80.2294 14.988C80.0452 17.0265 78.3661 17.745 76.4805 17.745C74.595 17.745 72.9165 17.0288 72.7324 14.9903V14.9918ZM35.1518 17.5335L35.0801 7.16475L33.2311 17.5335H30.535L28.7061 7.16475L28.6344 17.5335H25.9734L26.1949 6.3495H30.535L31.8831 15.0877L33.2311 6.3495H37.5705L37.8106 17.5335H35.1518ZM20.969 17.5335L19.5285 7.16475L18.0507 17.5335H15.1704L17.1283 6.3495H21.8748L23.8328 17.5335H20.969ZM66.1025 17.4172L63.425 8.1165L63.5726 17.4165H60.9496V6.3495H64.9013L67.4097 15.3593L67.2656 6.3495H69.9065V17.418L66.1025 17.4172Z" fill="white"/>
</g>
<defs>
<clipPath id="clip0_1_80">
<rect width="86" height="24" fill="white"/>
</clipPath>
</defs>
</svg>
