<svg width="49" height="24" viewBox="0 0 49 24" fill="none" xmlns="http://www.w3.org/2000/svg">
<g clip-path="url(#clip0_1_41)">
<path fill-rule="evenodd" clip-rule="evenodd" d="M0 24H24.7641L49 0H0V24Z" fill="#0A0A0D"/>
<path fill-rule="evenodd" clip-rule="evenodd" d="M29.0793 4.51289L24.256 4.50995V15.865L20.0425 4.50995H15.8647L12.2672 14.0059C11.8841 11.6116 9.3825 10.7848 7.41444 10.1649C6.11488 9.75171 4.73607 9.14395 4.74878 8.4723C4.75959 7.92089 5.48845 7.40877 6.93238 7.48583C7.90316 7.53677 8.75904 7.6143 10.4626 8.42771L12.1382 5.53865C10.5831 4.75536 8.43465 4.26018 6.67418 4.2583H6.66396C4.61106 4.2583 2.90002 4.91689 1.83953 6.0023C1.10034 6.7603 0.702163 7.72301 0.685528 8.78807C0.658555 10.2532 1.20134 11.293 2.34167 12.1219C3.30461 12.8212 4.53609 13.2742 5.62153 13.6074C6.96066 14.0182 8.05347 14.3751 8.04076 15.137C8.03089 15.4141 7.92467 15.6725 7.72338 15.8825C7.38985 16.2234 6.87689 16.3515 6.16871 16.3647C4.80261 16.3932 3.78917 16.1812 2.17509 15.237L0.685528 18.1668C2.2951 19.0732 4.20101 19.6048 6.14566 19.6048L6.3959 19.6019C8.08876 19.5718 9.45498 19.0942 10.5462 18.2241C10.6089 18.1751 10.6652 18.1247 10.7231 18.0738L10.2391 19.3531H14.6207L15.3561 17.1388C16.1257 17.3992 17.0014 17.5431 17.9317 17.5431C18.8368 17.5431 19.6896 17.4055 20.4455 17.1605L21.1542 19.3531H28.2999V14.7685H29.858C33.6254 14.7685 35.8533 12.8689 35.8533 9.68595C35.8533 6.14018 33.6885 4.51312 29.0791 4.51312L29.0793 4.51289ZM17.9319 14.229C17.369 14.229 16.8415 14.1316 16.3865 13.9614L17.9153 9.18571H17.9442L19.4465 13.9749C18.9949 14.1336 18.4795 14.229 17.932 14.229H17.9319ZM29.3625 11.485H28.3001V7.63665H29.3625C30.7797 7.63665 31.9097 8.10265 31.9097 9.53536C31.9097 11.0179 30.7797 11.485 29.3625 11.485Z" fill="white"/>
</g>
<defs>
<clipPath id="clip0_1_41">
<rect width="49" height="24" fill="white"/>
</clipPath>
</defs>
</svg>
