<svg width="84" height="17" viewBox="0 0 84 17" fill="none" xmlns="http://www.w3.org/2000/svg">
<g clip-path="url(#clip0_1_145)">
<path d="M0 7.30484V5.1585H1.82613V4.4146L4.1425 1.34143H5.27005V5.1585H7.48836V7.30484H5.27005V12.7439C5.27005 13.4431 5.34358 13.9024 5.49065 14.1219C5.6459 14.3415 5.96454 14.4512 6.44662 14.4512C6.71624 14.4512 7.02264 14.3943 7.3658 14.2804V16.7317C6.65496 16.878 5.96454 16.9512 5.29455 16.9512C4.8942 16.9512 4.51426 16.9228 4.15475 16.8658C3.10074 16.6951 2.4185 16.1991 2.10802 15.378C1.98546 15.0447 1.90784 14.7194 1.87515 14.4024C1.84248 14.0853 1.82613 13.4918 1.82613 12.6219V7.30484H0Z" fill="#0A0A0D"/>
<path d="M12.4592 9.39893V11.4545H7.85645V9.39893H12.4592Z" fill="#0A0A0D"/>
<path d="M19.8055 4.80493C20.6226 4.80493 21.3579 4.92281 22.0116 5.15859C23.3026 5.63013 24.2668 6.45533 24.904 7.6342C25.3942 8.54476 25.6394 9.65859 25.6394 10.9757C25.6394 12.8537 25.0592 14.3537 23.899 15.4757C22.845 16.4919 21.4764 17.0001 19.7933 17.0001C18.0039 17.0001 16.5741 16.431 15.5037 15.2927C14.4497 14.1789 13.9227 12.7114 13.9227 10.8903C13.9227 9.10981 14.4334 7.67484 15.4547 6.58541C16.566 5.39843 18.0162 4.80493 19.8055 4.80493ZM19.6584 7.20737C19.3072 7.20737 18.9967 7.29274 18.727 7.46346C17.8201 8.02445 17.3667 9.16672 17.3667 10.8903C17.3667 11.4513 17.4198 11.9879 17.526 12.5001C17.6649 13.1423 17.9305 13.6545 18.3226 14.0366C18.7148 14.4107 19.1724 14.5977 19.6953 14.5977C20.0221 14.5977 20.3245 14.5203 20.6022 14.3659C21.5255 13.8537 21.9871 12.7114 21.9871 10.9391C21.9871 10.3944 21.9381 9.8781 21.84 9.3903C21.7093 8.72363 21.4438 8.19517 21.0434 7.80494C20.6512 7.40655 20.1896 7.20737 19.6584 7.20737Z" fill="#0A0A0D"/>
<path d="M27.2082 16.6465V5.15859H30.6765V6.21956C31.4855 5.27647 32.5559 4.80493 33.8876 4.80493C35.4319 4.80493 36.5594 5.31713 37.2703 6.34152C37.7115 6.97566 37.932 7.96753 37.932 9.31713V16.6465H34.4881V9.8537C34.4881 9.05696 34.3983 8.49599 34.2185 8.17079C33.9326 7.65859 33.4628 7.40249 32.8091 7.40249C31.9593 7.40249 31.3424 7.81305 30.9584 8.6342C30.7541 9.05696 30.652 9.84152 30.652 10.9879V16.6465H27.2082Z" fill="#0A0A0D"/>
<path d="M40.6533 16.6464V0H44.0972V16.6464H40.6533Z" fill="#0A0A0D"/>
<path d="M47.1113 3.32927V0H50.7636V3.32927H47.1113ZM47.2093 16.6464V5.15854H50.6533V16.6464H47.2093Z" fill="#0A0A0D"/>
<path d="M53.5098 16.6462V5.15834H56.9783V6.21931C57.7871 5.27622 58.8574 4.80469 60.1893 4.80469C61.7335 4.80469 62.8611 5.31688 63.572 6.34128C64.0132 6.97542 64.2337 7.96728 64.2337 9.31688V16.6462H60.7899V9.85346C60.7899 9.05671 60.6999 8.49574 60.5202 8.17055C60.2342 7.65835 59.7643 7.40224 59.1107 7.40224C58.261 7.40224 57.6441 7.81281 57.2602 8.63395C57.0558 9.05671 56.9538 9.84128 56.9538 10.9876V16.6462H53.5098Z" fill="#0A0A0D"/>
<path d="M77.1021 11.7315H69.4299C69.528 13.7071 70.2512 14.6949 71.5993 14.6949C72.4245 14.6949 73.0088 14.2884 73.3519 13.4754H76.808C76.6447 14.0852 76.3423 14.6542 75.9011 15.1828C74.9043 16.3942 73.4867 16.9998 71.6483 16.9998C69.8917 16.9998 68.4904 16.4754 67.4446 15.4266C66.3414 14.3128 65.79 12.825 65.79 10.9632C65.79 9.23965 66.2925 7.80469 67.2975 6.65834C68.376 5.42257 69.7772 4.80469 71.5012 4.80469C72.8739 4.80469 74.0383 5.21525 74.9942 6.03639C75.6887 6.63802 76.2035 7.39005 76.5385 8.29249C76.8733 9.18681 77.0613 10.3331 77.1021 11.7315ZM73.4622 9.68274C73.4131 9.15428 73.311 8.70712 73.1558 8.34127C72.8045 7.51201 72.2448 7.09736 71.4767 7.09736C71.1091 7.09736 70.7863 7.20306 70.5086 7.41444C69.9039 7.85347 69.5484 8.60956 69.4422 9.68274H73.4622Z" fill="#0A0A0D"/>
<path d="M83.8883 12.4838H79.7049V16.6464H83.8883V12.4838Z" fill="#0A0A0D"/>
</g>
<defs>
<clipPath id="clip0_1_145">
<rect width="84" height="17" fill="white"/>
</clipPath>
</defs>
</svg>
