<svg width="72" height="17" viewBox="0 0 72 17" fill="none" xmlns="http://www.w3.org/2000/svg">
<g clip-path="url(#clip0_1_91)">
<path d="M66.7601 16.1706V10.6031H62.8023V16.1706H58.0528V0.796778H62.8023V6.0482H66.7601V0.796778H71.5097V16.1706H66.7601ZM51.9427 5.3521V16.1703H47.1925V5.3521H43.9631V0.796528H55.1721V5.3521H51.9427ZM36.3328 0.796778H38.7029H41.0829V16.1706H36.3328V0.796778ZM29.1136 8.48387C29.1136 10.5082 27.4995 12.1534 25.4727 12.1534C23.4465 12.1534 21.7998 10.5082 21.7998 8.48387C21.7998 6.45952 23.4465 4.84629 25.4727 4.84629C27.4995 4.84629 29.1136 6.45952 29.1136 8.48387ZM33.4842 8.48387C33.4842 4.05533 29.9059 0.480957 25.4727 0.480957C21.0401 0.480957 17.4305 4.05533 17.4305 8.48387C17.4305 12.9124 21.0401 16.5187 25.4727 16.5187C29.9059 16.5187 33.4842 12.9124 33.4842 8.48387ZM12.0798 0.796778L8.91361 9.40167L5.74683 0.796778H0.491211L7.10912 16.1706H10.6868L17.336 0.796778H12.0798Z" fill="#0A0A0D"/>
</g>
<defs>
<clipPath id="clip0_1_91">
<rect width="72" height="17" fill="white"/>
</clipPath>
</defs>
</svg>
