<svg width="49" height="29" viewBox="0 0 49 29" fill="none" xmlns="http://www.w3.org/2000/svg">
<g clip-path="url(#clip0_1_65)">
<path d="M44.2459 10.3627H48.9997V8.12004H43.2815C40.2031 8.12004 38.9367 9.83104 38.9367 12.5087V12.7697C38.4204 9.61837 36.5306 8.12004 33.0723 8.12004H27.2761C24.9381 3.48004 20.116 0.290039 14.5244 0.290039C6.67271 0.290039 0.291992 6.62171 0.291992 14.4227C0.291992 22.2237 6.67271 28.5457 14.5244 28.5457C20.0771 28.5457 24.8797 25.404 27.2274 20.8124H33.1405C34.553 20.8124 35.8292 20.7254 37.1248 19.7007C38.06 18.966 38.6445 17.922 38.9172 16.559V20.793H41.6254V15.8147H48.0256V13.601H41.6157L41.6546 12.702C41.6644 11.2424 42.1125 10.3627 44.2459 10.3627ZM33.0139 18.5697H30.0232V10.3627H33.0139C35.3616 10.3627 36.2091 11.3584 36.2091 14.471C36.2091 17.574 35.3713 18.5697 33.0139 18.5697Z" fill="#0A0A0D"/>
<path d="M20.8272 13.369H22.6001C24.0029 13.369 24.831 13.0887 24.831 11.9093C24.831 10.6913 24.0029 10.353 22.5612 10.353H16.5701V8.12H23.5451C27.0813 8.12 27.5878 10.5753 27.5878 11.948C27.5878 13.4077 26.9838 15.718 23.5451 15.718H21.8306C19.6874 15.718 19.2296 16.4817 19.2296 17.9413V18.618H27.2371V20.7833H16.4922V17.6417C16.4922 14.9543 17.7586 13.369 20.8272 13.369Z" fill="white"/>
</g>
<defs>
<clipPath id="clip0_1_65">
<rect width="49" height="29" fill="white"/>
</clipPath>
</defs>
</svg>
