<svg width="27" height="27" viewBox="0 0 27 27" fill="none" xmlns="http://www.w3.org/2000/svg">
<g clip-path="url(#clip0_43_114)">
<rect width="27" height="27" fill="white"/>
<path fill-rule="evenodd" clip-rule="evenodd" d="M2.03404 0C0.933468 0 0 0.871354 0 1.94364V25.0564C0 26.1299 0.61204 27 1.71261 27H24.7224C25.8242 27 27 26.1299 27 25.0564V1.94364C27 0.871354 26.1457 0 25.0438 0H2.03404ZM5.78571 3.375C7.11771 3.375 8.19643 4.45371 8.19643 5.78571C8.19643 7.11771 7.11771 8.19643 5.78571 8.19643C4.45371 8.19643 3.375 7.11771 3.375 5.78571C3.375 4.45371 4.45371 3.375 5.78571 3.375ZM18.1758 10.125C22.0599 10.125 23.1429 12.1863 23.1429 16.0061V23.1429H19.2857V16.7093C19.2857 14.9993 18.6024 13.5 17.0056 13.5C15.0667 13.5 14.1429 14.8131 14.1429 16.9679V23.1429H10.2857V10.2857H13.9194V12.139H13.9595C14.5136 11.14 16.1521 10.125 18.1758 10.125ZM3.85714 10.2857H7.71429V23.1429H3.85714V10.2857Z" fill="#0A0A0D"/>
</g>
<defs>
<clipPath id="clip0_43_114">
<rect width="27" height="27" fill="white"/>
</clipPath>
</defs>
</svg>
