<svg width="18" height="18" viewBox="0 0 18 18" fill="none" xmlns="http://www.w3.org/2000/svg">
<g clip-path="url(#clip0_2_7)">
<rect width="18" height="18" fill="white"/>
<path fill-rule="evenodd" clip-rule="evenodd" d="M1.35603 0C0.622312 0 0 0.580903 0 1.29576V16.7042C0 17.42 0.408026 18 1.14174 18H16.4816C17.2162 18 18 17.42 18 16.7042V1.29576C18 0.580903 17.4304 0 16.6959 0H1.35603ZM3.85714 2.25C4.74514 2.25 5.46429 2.96914 5.46429 3.85714C5.46429 4.74514 4.74514 5.46429 3.85714 5.46429C2.96914 5.46429 2.25 4.74514 2.25 3.85714C2.25 2.96914 2.96914 2.25 3.85714 2.25ZM12.1172 6.75C14.7066 6.75 15.4286 8.12419 15.4286 10.6708V15.4286H12.8571V11.1395C12.8571 9.99951 12.4016 9 11.3371 9C10.0445 9 9.42857 9.87537 9.42857 11.3119V15.4286H6.85714V6.85714H9.27958V8.09264H9.30631C9.67574 7.42664 10.768 6.75 12.1172 6.75ZM2.57143 6.85714H5.14286V15.4286H2.57143V6.85714Z" fill="#AAAAAA"/>
</g>
<defs>
<clipPath id="clip0_2_7">
<rect width="18" height="18" fill="white"/>
</clipPath>
</defs>
</svg>
