<svg width="25" height="17" viewBox="0 0 25 17" fill="none" xmlns="http://www.w3.org/2000/svg">
<g clip-path="url(#clip0_70_201)">
<mask id="mask0_70_201" style="mask-type:luminance" maskUnits="userSpaceOnUse" x="0" y="0" width="25" height="17">
<path d="M25 0H0V17H25V0Z" fill="white"/>
</mask>
<g mask="url(#mask0_70_201)">
<path d="M25 0H0V17H25V0Z" fill="#0A0A0D"/>
<path d="M2.37862 17C1.71393 17 1.15132 16.8017 0.69079 16.405C0.230263 16.0083 0 15.5237 0 14.9512V2.04878C0 1.47626 0.230263 0.991667 0.69079 0.595C1.15132 0.198333 1.71393 0 2.37862 0H22.6214C23.2861 0 23.8487 0.198333 24.3092 0.595C24.7697 0.991667 25 1.47626 25 2.04878V14.9512C25 15.5237 24.7697 16.0083 24.3092 16.405C23.8487 16.8017 23.2861 17 22.6214 17H2.37862ZM12.5 9.13212L23.0263 3.33455L22.824 1.7L12.5 7.36667L2.17599 1.7L1.97368 3.33455L12.5 9.13212Z" fill="white"/>
</g>
</g>
<defs>
<clipPath id="clip0_70_201">
<rect width="25" height="17" fill="white"/>
</clipPath>
</defs>
</svg>
