<?xml version="1.0" encoding="utf-8"?>
<!-- Generator: Adobe Illustrator 25.2.1, SVG Export Plug-In . SVG Version: 6.00 Build 0)  -->
<svg version="1.1" id="Layer_1" xmlns="http://www.w3.org/2000/svg" xmlns:xlink="http://www.w3.org/1999/xlink" x="0px" y="0px"
	 viewBox="0 0 2109 603" style="enable-background:new 0 0 2109 603;" xml:space="preserve">
<style type="text/css">
	.st0{fill:#008BC8;}
	.st1{opacity:0.9;fill:#6DB9EB;enable-background:new    ;}
	.st2{opacity:0.6;fill:#28B5CE;enable-background:new    ;}
	.st3{fill:#444444;}
</style>
<rect x="129" y="206.7" class="st0" width="312" height="312"/>
<rect x="38" y="124.7" class="st1" width="164" height="164"/>
<rect x="285" y="34.7" class="st2" width="345" height="345"/>
<g>
	<path class="st3" d="M738,561.7V380.3h5.3v37.9h0.5c1.7-6,4.3-11.4,7.6-16.4s7.3-9.3,11.8-13c4.6-3.7,9.8-6.5,15.6-8.5
		c5.9-2,12.2-3,19-3c8.9,0,17,1.7,24.1,5.3c7.1,3.5,13.1,8.4,18.1,14.7c5,6.3,8.8,13.8,11.4,22.3c2.6,8.6,3.9,18,3.9,28.1
		c0,9.5-1.3,18.5-3.8,27.1c-2.6,8.6-6.2,16.1-11,22.6s-10.8,11.6-18,15.4s-15.4,5.7-24.7,5.7c-14.4,0-26.2-3.7-35.5-11.2
		s-15.5-17.3-18.7-29.6h-0.5v84H738L738,561.7z M821.7,507.4c6.6-3.9,12-9,16.2-15.2s7.3-13.2,9.3-21s3-15.6,3-23.5
		c0-8.8-1.1-17-3.3-24.8s-5.4-14.7-9.7-20.8c-4.3-6-9.7-10.8-16.3-14.3s-14.2-5.3-23-5.3c-8.6,0-16.3,1.8-23.1,5.3
		s-12.6,8.2-17.2,14.2c-4.6,6-8.2,12.9-10.6,20.8c-2.5,7.9-3.7,16.2-3.7,25c0,21.2,5,37.5,15,48.8s23.2,17,39.7,17
		C807.2,513.3,815.1,511.4,821.7,507.4L821.7,507.4z M879.1,354.3v-26.6h5.3v26.6H879.1z M879.1,515.4V380.3h5.3v135.1H879.1z
		 M1005,380.3l-49.4,65.2l54.1,69.9h-6.6l-51-66l-50.7,66h-6.3l53.9-69.9l-49.1-65.2h6.8l45.5,61.3l46.5-61.3
		C998.7,380.3,1005,380.3,1005,380.3z M1020.9,474.3c2,7.8,5.1,14.6,9.3,20.4c4.2,5.8,9.6,10.3,16.3,13.7c6.7,3.4,14.8,5,24.5,5
		c14.2,0,26-3.7,35.4-11.2c9.4-7.4,15.2-18.6,17.5-33.5h5.3c-1.9,15.8-8.1,28-18.7,36.7c-10.5,8.7-23.5,13-38.9,13
		c-10.5,0.2-19.5-1.5-26.9-5c-7.4-3.5-13.5-8.5-18.3-14.9c-4.7-6.4-8.2-13.9-10.5-22.6s-3.4-18-3.4-28c0-11.2,1.7-21.2,5-30
		s7.7-16.2,13.1-22.2c5.4-6,11.7-10.6,18.9-13.8c7.2-3.2,14.5-4.7,22.1-4.7c10.5,0,19.6,2,27.2,6s13.8,9.4,18.7,16
		c4.8,6.7,8.3,14.3,10.5,22.9s3.1,17.5,2.8,26.8h-113C1017.8,458,1018.9,466.5,1020.9,474.3L1020.9,474.3z M1122,420.1
		c-2.3-7.4-5.7-14-10.1-19.6c-4.5-5.6-10-10-16.7-13.3c-6.7-3.2-14.4-4.9-23.1-4.9c-7.4,0-14.2,1.4-20.6,4.2
		c-6.4,2.8-12,6.9-16.8,12.2c-4.8,5.3-8.7,11.8-11.7,19.3s-4.7,16-5.3,25.5h107.7C1125.4,435.4,1124.2,427.6,1122,420.1L1122,420.1z
		 M1156.9,327.7v187.7h-5.3V327.7H1156.9z M1238.1,442.3v5.3h-46v-5.3H1238.1z M1273.4,354.3v-26.6h5.3v26.6H1273.4z M1273.4,515.4
		V380.3h5.3v135.1H1273.4z M1312.8,380.3v33.4h0.5c1.2-5.3,3.2-10.1,5.9-14.5c2.7-4.4,6.1-8.2,10.3-11.6c4.1-3.3,8.9-5.9,14.3-7.8
		c5.4-1.8,11.5-2.8,18.1-2.8c7,0,13.5,1.1,19.3,3.2c5.9,2.1,10.9,5.2,15.2,9.3c4.3,4.1,7.6,9.2,10,15.2s3.6,13,3.6,20.9v89.6h-5.3
		v-88.9c0-7.9-1.1-14.6-3.4-20.1s-5.4-10.1-9.3-13.7s-8.5-6.2-13.7-7.9c-5.2-1.7-10.6-2.5-16.4-2.5c-8,0-15.2,1.5-21.3,4.6
		c-6.1,3.1-11.3,7.2-15.4,12.4c-4.1,5.2-7.2,11.2-9.3,18s-3.1,14-3.1,21.6v76.5h-5.3V380.3H1312.8L1312.8,380.3z M1549.3,327.7
		v187.7h-5.3v-37.9h-0.5c-3.5,12.1-9.9,21.9-19.3,29.4c-9.4,7.5-21,11.3-34.8,11.3c-8.9,0-17-1.7-24.1-5.3
		c-7.1-3.5-13.1-8.4-18.1-14.6s-8.8-13.6-11.4-22.2s-3.9-18-3.9-28.1c0-9.5,1.3-18.5,3.8-27.1s6.2-16.1,11-22.6s10.8-11.7,18-15.5
		c7.2-3.9,15.4-5.8,24.7-5.8c14.4,0,26.2,3.8,35.5,11.3s15.5,17.4,18.7,29.7h0.5v-90.3H1549.3L1549.3,327.7z M1529.1,399.3
		c-10-11.3-23.2-17-39.7-17c-9.1,0-17,2-23.7,5.9s-12.1,9-16.3,15.2c-4.2,6.2-7.3,13.2-9.3,21s-3,15.6-3,23.5
		c0,8.6,1.1,16.8,3.3,24.7c2.2,7.9,5.4,14.9,9.7,20.9c4.3,6,9.7,10.8,16.3,14.3c6.6,3.5,14.2,5.3,23,5.3s16.5-1.8,23.3-5.3
		c6.7-3.5,12.4-8.2,17.1-14.2c4.6-6,8.2-12.9,10.6-20.8c2.5-7.9,3.7-16.2,3.7-25C1544.1,426.9,1539.1,410.7,1529.1,399.3z
		 M1677.3,515.4V482h-0.5c-2.5,10.5-7.8,19.2-16.2,26c-8.3,6.8-19.2,10.3-32.5,10.3c-7,0-13.4-1-19.3-3s-11-5.1-15.2-9.2
		c-4.3-4.1-7.6-9.2-10-15.2s-3.5-13-3.5-20.9v-89.6h5.3v88.9c0,7.9,1.1,14.6,3.4,20.1s5.4,10.1,9.3,13.7s8.5,6.2,13.7,7.9
		c5.2,1.7,10.7,2.5,16.4,2.5c8,0,15.2-1.5,21.3-4.6c6.1-3.1,11.3-7.2,15.4-12.4c4.1-5.2,7.2-11.2,9.3-18s3.2-14,3.2-21.6v-76.5h5.3
		v135.1L1677.3,515.4L1677.3,515.4z M1796.4,402.9c-2.1-4.7-5.1-8.6-8.9-11.7c-3.9-3.1-8.5-5.3-13.8-6.7c-5.4-1.4-11.3-2.1-17.7-2.1
		c-9.5,0-16.9,1.3-22.3,3.8s-9.5,5.4-12.1,8.7c-2.6,3.2-4.3,6.4-5,9.6s-1,5.3-1,6.6c0,6.7,1.3,11.8,4.1,15.4
		c2.7,3.6,6.3,6.4,10.9,8.3c4.7,1.9,9.8,3.6,15.4,5c5.5,1.4,12,3.1,19.3,5c5.3,1.4,10.5,2.9,15.6,4.3c5.2,1.5,9.8,3.5,13.9,6.2
		c4.1,2.6,7.5,6,10,10s3.8,9.3,3.8,15.8c0,6.8-1.5,12.6-4.3,17.4c-2.9,4.7-6.7,8.6-11.3,11.6c-4.6,3-9.9,5.1-15.8,6.4
		s-11.7,2-17.5,2c-18,0-31.7-3.9-40.9-11.8c-9.2-7.9-13.8-20.3-13.8-37.3h5.3c0,15.2,4.3,26.4,12.8,33.5s20.7,10.6,36.7,10.6
		c4.9,0,9.9-0.6,15.1-1.7s9.9-3,14.1-5.5s7.7-5.8,10.4-9.9c2.7-4,4.1-8.9,4.1-14.7c0-6-1.4-10.8-4.1-14.5s-6.2-6.7-10.5-9.1
		s-9.3-4.2-14.9-5.7c-5.6-1.4-11.3-2.8-17.1-4.2c-6.5-1.6-12.2-3.1-17.1-4.5s-9.3-3-13.1-4.7c-5.6-2.4-9.7-5.9-12.4-10.3
		c-2.6-4.4-3.9-10.3-3.9-17.6c0-3.7,0.8-7.5,2.4-11.6c1.6-4,4.2-7.7,7.9-11s8.4-6,14.2-8.1c5.8-2.1,12.9-3.2,21.3-3.2
		c15.1,0,27,3.4,35.7,10.3s13.1,17.8,13.1,32.9h-5.2C1799.6,413.4,1798.5,407.6,1796.4,402.9L1796.4,402.9z M1847.6,489.1
		c0,5.1,0.6,9,1.7,11.8s2.6,4.9,4.3,6.3c1.7,1.4,3.7,2.2,5.8,2.5s4.2,0.4,6.3,0.4c2.6,0,5,0,7.1-0.1s3.6-0.3,4.5-0.7v5.3l-4.6,0.5
		c-1.5,0.2-4.3,0.3-8.3,0.3c-6.1,0-11.4-1.8-15.6-5.4c-4.3-3.6-6.4-10.2-6.4-19.8V385.5h-24.7v-5.3h24.7v-42.5h5.3v42.6h30.5v5.3
		h-30.5L1847.6,489.1L1847.6,489.1z M1896.5,515.4V380.3h5.3v33.4h0.5c1.2-5.1,3.1-9.9,5.8-14.3s6.1-8.4,10.5-11.7
		c4.4-3.3,9.6-6,15.6-7.9s13.1-2.8,21.2-2.6v5.3c-9.3-0.5-17.3,0.7-24,3.8c-6.7,3.1-12.3,7.3-16.7,12.6c-4.4,5.3-7.6,11.5-9.7,18.5
		s-3.2,14.2-3.2,21.6v76.5L1896.5,515.4L1896.5,515.4z M2065,380.3l-62.3,162.5c-1.8,4.6-3.9,8.1-6.3,10.6c-2.5,2.5-5.2,4.4-8.1,5.7
		c-3,1.2-6.3,2-9.9,2.2c-3.6,0.3-7.4,0.4-11.4,0.4v-5.3c4.6,0,8.5-0.1,11.7-0.4c3.2-0.3,6-1,8.4-2.1s4.5-2.9,6.3-5.3
		s3.5-5.6,5.1-9.6l9.7-25L1952,380.3h5.5l53.6,128l48.4-128H2065L2065,380.3z"/>
</g>
</svg>
