<svg width="209" height="19" viewBox="0 0 209 19" fill="none" xmlns="http://www.w3.org/2000/svg">
<g clip-path="url(#clip0_57_187)">
<rect width="209" height="19" fill="white"/>
<path d="M-0.124 19V-0.516001H6.316C8.51867 -0.516001 10.18 -0.0400008 11.3 0.911999C12.42 1.84533 12.98 3.25467 12.98 5.14C12.98 7.02533 12.4107 8.46267 11.272 9.452C10.1333 10.4413 8.48133 10.936 6.316 10.936H3.46V19H-0.124ZM3.46 7.716H5.952C7.03467 7.716 7.87467 7.52933 8.472 7.156C9.06933 6.764 9.368 6.10133 9.368 5.168C9.368 4.272 9.07867 3.64667 8.5 3.292C7.94 2.91867 7.09067 2.732 5.952 2.732H3.46V7.716ZM15.5987 19V-0.516001H19.2107V19H15.5987ZM21.4701 19L27.9661 9.256L21.4701 -0.516001H25.8101L30.4581 6.736L35.1061 -0.516001H39.4181L32.9501 9.256L39.4741 19H35.1341L30.4301 11.888L25.7821 19H21.4701ZM41.7119 19V-0.516001H54.7039V2.732H45.3239V7.38H54.0879V10.6H45.3239V15.752H54.7039V19H41.7119ZM57.8994 19V-0.516001H61.5114V15.752H69.8274V19H57.8994ZM71.2528 12.028V9.424H78.1968V12.028H71.2528ZM81.169 19V-0.516001H84.781V19H81.169ZM88.5244 19V-0.516001H92.2484L101.348 14.268H100.452V-0.516001H104.064V19H100.312L91.2404 4.188H92.1364V19H88.5244ZM107.829 19V-0.516001H113.513C116.761 -0.516001 119.272 0.342666 121.045 2.06C122.818 3.77733 123.705 6.22267 123.705 9.396C123.705 12.4947 122.828 14.8747 121.073 16.536C119.318 18.1787 116.789 19 113.485 19H107.829ZM111.441 15.668H113.121C114.596 15.668 115.846 15.4813 116.873 15.108C117.9 14.7347 118.684 14.0813 119.225 13.148C119.785 12.2147 120.065 10.9173 120.065 9.256C120.065 7.65067 119.794 6.38133 119.253 5.448C118.73 4.496 117.974 3.824 116.985 3.432C116.014 3.02133 114.838 2.816 113.457 2.816H111.441V15.668ZM134.004 19.448C131.54 19.448 129.674 18.8227 128.404 17.572C127.154 16.3213 126.528 14.4453 126.528 11.944V-0.516001H130.14V11.524C130.14 12.532 130.243 13.3813 130.448 14.072C130.672 14.744 131.064 15.2573 131.624 15.612C132.203 15.948 132.996 16.116 134.004 16.116C135.012 16.116 135.796 15.948 136.356 15.612C136.935 15.2573 137.336 14.744 137.56 14.072C137.784 13.3813 137.896 12.5413 137.896 11.552V-0.516001H141.508V11.804C141.508 14.3427 140.874 16.256 139.604 17.544C138.335 18.8133 136.468 19.448 134.004 19.448ZM151.539 19.364C149.467 19.364 147.759 18.8227 146.415 17.74C145.089 16.6573 144.287 15.22 144.007 13.428L147.535 12.56C147.74 13.7547 148.207 14.6507 148.935 15.248C149.681 15.8453 150.596 16.144 151.679 16.144C152.257 16.144 152.771 16.0507 153.219 15.864C153.685 15.6587 154.049 15.3693 154.311 14.996C154.591 14.604 154.731 14.1467 154.731 13.624C154.731 13.1387 154.591 12.7187 154.311 12.364C154.031 12.0093 153.601 11.6827 153.023 11.384C152.463 11.0853 151.753 10.7773 150.895 10.46C149.663 9.97467 148.627 9.46133 147.787 8.92C146.965 8.36 146.349 7.716 145.939 6.988C145.528 6.26 145.323 5.40133 145.323 4.412C145.323 3.36667 145.575 2.44267 146.079 1.64C146.601 0.837332 147.32 0.202666 148.235 -0.264001C149.168 -0.730668 150.251 -0.964002 151.483 -0.964002C152.789 -0.964002 153.947 -0.656001 154.955 -0.0400002C155.981 0.557333 156.803 1.45333 157.419 2.648L154.535 4.412C154.143 3.70267 153.676 3.17067 153.135 2.816C152.612 2.44267 152.024 2.256 151.371 2.256C150.904 2.256 150.484 2.34933 150.111 2.536C149.756 2.704 149.467 2.94667 149.243 3.264C149.037 3.56267 148.935 3.91733 148.935 4.328C148.935 4.75733 149.056 5.14 149.299 5.476C149.56 5.812 149.971 6.13867 150.531 6.456C151.109 6.75467 151.856 7.072 152.771 7.408C153.984 7.856 154.992 8.35067 155.795 8.892C156.616 9.43333 157.241 10.068 157.671 10.796C158.1 11.5053 158.315 12.3733 158.315 13.4C158.315 14.5573 158.025 15.5933 157.447 16.508C156.887 17.404 156.103 18.104 155.095 18.608C154.087 19.112 152.901 19.364 151.539 19.364ZM165.629 19V2.732H159.581V-0.516001H175.317V2.732H169.297V19H165.629ZM177.501 19V-0.516001H183.941C185.528 -0.516001 186.806 -0.282668 187.777 0.183999C188.748 0.631999 189.457 1.28533 189.905 2.144C190.372 2.984 190.605 3.98267 190.605 5.14C190.605 6.932 190.092 8.32267 189.065 9.312C188.057 10.2827 186.61 10.824 184.725 10.936C184.296 10.9547 183.857 10.964 183.409 10.964C182.961 10.964 182.578 10.964 182.261 10.964H181.113V19H177.501ZM188.113 19L183.213 10.544L186.909 10.096L192.285 19H188.113ZM181.113 7.716H183.577C184.193 7.716 184.753 7.65067 185.257 7.52C185.78 7.37067 186.2 7.11867 186.517 6.764C186.834 6.39067 186.993 5.868 186.993 5.196C186.993 4.50533 186.834 3.98267 186.517 3.628C186.2 3.27333 185.78 3.04 185.257 2.928C184.753 2.79733 184.193 2.732 183.577 2.732H181.113V7.716ZM198.511 19V11.356L191.651 -0.516001H195.795L200.219 7.772L204.811 -0.516001H208.927L202.123 11.356V19H198.511Z" fill="black"/>
</g>
<defs>
<clipPath id="clip0_57_187">
<rect width="209" height="19" fill="white"/>
</clipPath>
</defs>
</svg>
