<svg width="26" height="14" viewBox="0 0 26 14" fill="none" xmlns="http://www.w3.org/2000/svg">
<path d="M7.09091 14C5.12121 14 3.44697 13.3194 2.06818 11.9583C0.689394 10.5972 0 8.94444 0 7C0 5.05556 0.689394 3.40278 2.06818 2.04167C3.44697 0.680556 5.12121 0 7.09091 0H18.9091C20.8788 0 22.553 0.680556 23.9318 2.04167C25.3106 3.40278 26 5.05556 26 7C26 8.94444 25.3106 10.5972 23.9318 11.9583C22.553 13.3194 20.8788 14 18.9091 14H7.09091ZM7.09091 11.6667H18.9091C20.2091 11.6667 21.322 11.2097 22.2477 10.2958C23.1735 9.38194 23.6364 8.28333 23.6364 7C23.6364 5.71667 23.1735 4.61806 22.2477 3.70417C21.322 2.79028 20.2091 2.33333 18.9091 2.33333H7.09091C5.79091 2.33333 4.67803 2.79028 3.75227 3.70417C2.82652 4.61806 2.36364 5.71667 2.36364 7C2.36364 8.28333 2.82652 9.38194 3.75227 10.2958C4.67803 11.2097 5.79091 11.6667 7.09091 11.6667Z" fill="white"/>
</svg>
