<svg width="50" height="22" viewBox="0 0 50 22" fill="none" xmlns="http://www.w3.org/2000/svg">
<rect width="50" height="22" rx="11" fill="#464646"/>
<circle cx="12" cy="11" r="8" fill="white"/>
<path d="M29.464 16.156C28.688 16.156 28.004 15.976 27.412 15.616C26.828 15.256 26.372 14.752 26.044 14.104C25.716 13.448 25.552 12.688 25.552 11.824C25.552 10.952 25.716 10.192 26.044 9.544C26.372 8.888 26.828 8.38 27.412 8.02C28.004 7.66 28.688 7.48 29.464 7.48C30.256 7.48 30.948 7.66 31.54 8.02C32.132 8.38 32.592 8.888 32.92 9.544C33.248 10.192 33.412 10.952 33.412 11.824C33.412 12.688 33.244 13.448 32.908 14.104C32.58 14.752 32.12 15.256 31.528 15.616C30.936 15.976 30.248 16.156 29.464 16.156ZM29.464 14.992C30.024 14.992 30.504 14.864 30.904 14.608C31.304 14.344 31.616 13.976 31.84 13.504C32.064 13.024 32.176 12.464 32.176 11.824C32.176 11.176 32.064 10.616 31.84 10.144C31.616 9.664 31.304 9.296 30.904 9.04C30.504 8.776 30.024 8.644 29.464 8.644C28.92 8.644 28.444 8.772 28.036 9.028C27.636 9.284 27.324 9.652 27.1 10.132C26.884 10.604 26.776 11.168 26.776 11.824C26.776 12.472 26.884 13.036 27.1 13.516C27.324 13.988 27.636 14.352 28.036 14.608C28.444 14.864 28.92 14.992 29.464 14.992ZM35.1166 16V10.996H34.0966V10.084H35.1166V9.616C35.1166 9.176 35.2246 8.804 35.4406 8.5C35.6566 8.188 35.9486 7.948 36.3166 7.78C36.6846 7.612 37.0806 7.528 37.5046 7.528C37.7686 7.528 38.0206 7.56 38.2606 7.624C38.5086 7.68 38.7486 7.776 38.9806 7.912C39.1406 7.768 39.3326 7.668 39.5566 7.612C39.7806 7.556 40.0206 7.528 40.2766 7.528C40.4766 7.528 40.6566 7.548 40.8166 7.588C40.9846 7.628 41.1566 7.692 41.3326 7.78L40.9486 8.668C40.8446 8.612 40.7446 8.572 40.6486 8.548C40.5606 8.524 40.4766 8.512 40.3966 8.512C40.1166 8.512 39.9126 8.588 39.7846 8.74C39.6646 8.892 39.6046 9.1 39.6046 9.364V10.084H41.2006V10.996H39.6046V16H38.4286V10.996H36.2806V16H35.1166ZM36.2806 10.084H38.4406V9.244C38.4406 9.14 38.4486 9.044 38.4646 8.956C38.4886 8.868 38.5206 8.792 38.5606 8.728C38.4166 8.648 38.2606 8.588 38.0926 8.548C37.9326 8.508 37.7566 8.488 37.5646 8.488C37.1406 8.488 36.8206 8.592 36.6046 8.8C36.3886 9.008 36.2806 9.288 36.2806 9.64V10.084Z" fill="white"/>
<path d="M9.6 14L9 13.4L11.4 11L9 8.6L9.6 8L12 10.4L14.4 8L15 8.6L12.6 11L15 13.4L14.4 14L12 11.6L9.6 14Z" fill="#1F1F1F"/>
</svg>
