<svg width="50" height="22" viewBox="0 0 50 22" fill="none" xmlns="http://www.w3.org/2000/svg">
<rect width="50" height="22" rx="11" fill="white"/>
<circle cx="38" cy="11" r="8" fill="black"/>
<path d="M12.464 16.156C11.688 16.156 11.004 15.976 10.412 15.616C9.828 15.256 9.372 14.752 9.044 14.104C8.716 13.448 8.552 12.688 8.552 11.824C8.552 10.952 8.716 10.192 9.044 9.544C9.372 8.888 9.828 8.38 10.412 8.02C11.004 7.66 11.688 7.48 12.464 7.48C13.256 7.48 13.948 7.66 14.54 8.02C15.132 8.38 15.592 8.888 15.92 9.544C16.248 10.192 16.412 10.952 16.412 11.824C16.412 12.688 16.244 13.448 15.908 14.104C15.58 14.752 15.12 15.256 14.528 15.616C13.936 15.976 13.248 16.156 12.464 16.156ZM12.464 14.992C13.024 14.992 13.504 14.864 13.904 14.608C14.304 14.344 14.616 13.976 14.84 13.504C15.064 13.024 15.176 12.464 15.176 11.824C15.176 11.176 15.064 10.616 14.84 10.144C14.616 9.664 14.304 9.296 13.904 9.04C13.504 8.776 13.024 8.644 12.464 8.644C11.92 8.644 11.444 8.772 11.036 9.028C10.636 9.284 10.324 9.652 10.1 10.132C9.884 10.604 9.776 11.168 9.776 11.824C9.776 12.472 9.884 13.036 10.1 13.516C10.324 13.988 10.636 14.352 11.036 14.608C11.444 14.864 11.92 14.992 12.464 14.992ZM17.7926 16V10.084H18.9806V11.368L18.7406 11.44C18.8446 11.112 18.9926 10.844 19.1846 10.636C19.3846 10.42 19.6166 10.256 19.8806 10.144C20.1526 10.032 20.4446 9.976 20.7566 9.976C21.4126 9.976 21.9246 10.168 22.2926 10.552C22.6686 10.928 22.8566 11.48 22.8566 12.208V16H21.6806V12.64C21.6806 12.072 21.5766 11.656 21.3686 11.392C21.1686 11.128 20.8566 10.996 20.4326 10.996C20.1126 10.996 19.8446 11.068 19.6286 11.212C19.4206 11.356 19.2606 11.584 19.1486 11.896C19.0366 12.208 18.9806 12.604 18.9806 13.084V16H17.7926Z" fill="black"/>
<path d="M37.3333 14L35 11.4468L35.8167 10.5532L37.3333 12.2128L41.1833 8L42 8.89362L37.3333 14Z" fill="white"/>
</svg>
